<svg width="277" height="217" viewBox="0 0 277 217" fill="none" xmlns="http://www.w3.org/2000/svg">
<g clip-path="url(#clip0_1211_2192)">
<rect width="277" height="217" rx="20" fill="#090A13"/>
<g filter="url(#filter0_f_1211_2192)">
<ellipse cx="138.5" cy="-16.5" rx="84.5" ry="44.5" fill="#1F53FF"/>
</g>
<mask id="mask0_1211_2192" style="mask-type:alpha" maskUnits="userSpaceOnUse" x="-611" y="-74" width="1498" height="346">
<path d="M886.499 -72.6687L-609.606 -72.6688M886.499 -48.1434L-609.606 -48.1436M886.499 -23.6165L-609.606 -23.6166M-609.695 270.968L-609.695 -72.7588M-585.168 270.968L-585.168 -72.7588M-560.645 270.968L-560.645 -72.7588M-536.118 270.968L-536.118 -72.7588M-511.591 270.968L-511.591 -72.7588M-487.064 270.968L-487.064 -72.7588M-462.537 270.968L-462.537 -72.7588M-438.01 270.968L-438.01 -72.7588M-413.487 270.968L-413.487 -72.7588M-388.96 270.968L-388.96 -72.7588M-364.433 270.968L-364.433 -72.7588M-339.906 270.968L-339.906 -72.7588M-315.379 270.968L-315.379 -72.7588M-290.852 270.968L-290.852 -72.7588M-266.325 270.968L-266.325 -72.7588M-241.802 270.968L-241.802 -72.7588M-217.275 270.968L-217.275 -72.7588M-192.748 270.968L-192.748 -72.7588M-168.224 270.968L-168.224 -72.7588M-143.697 270.968L-143.697 -72.7588M-119.167 270.968L-119.167 -72.7588M-94.6435 270.968L-94.6435 -72.7588M-70.1166 270.968L-70.1166 -72.7588M-45.5896 270.968L-45.5896 -72.7588M-21.0627 270.968L-21.0626 -72.7588M3.46074 270.968L3.4608 -72.7588M27.9877 270.968L27.9878 -72.7588M52.5147 270.968L52.5147 -72.7588M77.0416 270.968L77.0416 -72.7588M101.569 270.968L101.569 -72.7588M126.095 270.968L126.095 -72.7588M150.619 270.968L150.619 -72.7588M175.146 270.968L175.146 -72.7588M199.673 270.968L199.673 -72.7588M224.196 270.968L224.196 -72.7588M248.727 270.968L248.727 -72.7588M273.254 270.968L273.254 -72.7588M297.777 270.968L297.777 -72.7588M322.304 270.968L322.304 -72.7588M346.831 270.968V-72.7588M371.358 270.968L371.358 -72.7588M395.881 270.968V-72.7588M420.412 270.968L420.412 -72.7588M444.939 270.968L444.939 -72.7588M469.462 270.968L469.462 -72.7588M493.989 270.968L493.989 -72.7588M518.516 270.968V-72.7588M543.04 270.968V-72.7588M567.567 270.968V-72.7588M592.093 270.968L592.093 -72.7588M616.62 270.968V-72.7588M641.147 270.968V-72.7588M665.674 270.968V-72.7588M690.198 270.968L690.198 -72.7588M714.725 270.968V-72.7588M739.252 270.968V-72.7588M763.778 270.968V-72.7588M788.305 270.968V-72.7588M812.832 270.968L812.832 -72.7588M837.359 270.968V-72.7588M861.883 270.968L861.883 -72.7588M886.41 270.968V-72.7588M886.499 0.910433L-609.606 0.910292M886.499 25.6153L-609.606 25.6151M886.499 50.1405L-609.606 50.1403M886.499 74.6691L-609.606 74.669M886.499 99.1943L-609.606 99.1942M886.499 123.72L-609.606 123.719M886.499 148.248L-609.606 148.248M886.499 172.773L-609.606 172.773M886.499 197.478L-609.606 197.478M886.499 222.005L-609.606 222.005M886.499 246.532L-609.606 246.532M886.499 271.057L-609.606 271.057" stroke="url(#paint0_radial_1211_2192)"/>
</mask>
<g mask="url(#mask0_1211_2192)">
<path opacity="0.43" d="M886.499 -72.6687L-609.606 -72.6688M886.499 -48.1434L-609.606 -48.1436M886.499 -23.6165L-609.606 -23.6166M-609.695 270.968L-609.695 -72.7588M-585.168 270.968L-585.168 -72.7588M-560.645 270.968L-560.645 -72.7588M-536.118 270.968L-536.118 -72.7588M-511.591 270.968L-511.591 -72.7588M-487.064 270.968L-487.064 -72.7588M-462.537 270.968L-462.537 -72.7588M-438.01 270.968L-438.01 -72.7588M-413.487 270.968L-413.487 -72.7588M-388.96 270.968L-388.96 -72.7588M-364.433 270.968L-364.433 -72.7588M-339.906 270.968L-339.906 -72.7588M-315.379 270.968L-315.379 -72.7588M-290.852 270.968L-290.852 -72.7588M-266.325 270.968L-266.325 -72.7588M-241.802 270.968L-241.802 -72.7588M-217.275 270.968L-217.275 -72.7588M-192.748 270.968L-192.748 -72.7588M-168.224 270.968L-168.224 -72.7588M-143.697 270.968L-143.697 -72.7588M-119.167 270.968L-119.167 -72.7588M-94.6435 270.968L-94.6435 -72.7588M-70.1166 270.968L-70.1166 -72.7588M-45.5896 270.968L-45.5896 -72.7588M-21.0627 270.968L-21.0626 -72.7588M3.46074 270.968L3.4608 -72.7588M27.9877 270.968L27.9878 -72.7588M52.5147 270.968L52.5147 -72.7588M77.0416 270.968L77.0416 -72.7588M101.569 270.968L101.569 -72.7588M126.095 270.968L126.095 -72.7588M150.619 270.968L150.619 -72.7588M175.146 270.968L175.146 -72.7588M199.673 270.968L199.673 -72.7588M224.196 270.968L224.196 -72.7588M248.727 270.968L248.727 -72.7588M273.254 270.968L273.254 -72.7588M297.777 270.968L297.777 -72.7588M322.304 270.968L322.304 -72.7588M346.831 270.968V-72.7588M371.358 270.968L371.358 -72.7588M395.881 270.968V-72.7588M420.412 270.968L420.412 -72.7588M444.939 270.968L444.939 -72.7588M469.462 270.968L469.462 -72.7588M493.989 270.968L493.989 -72.7588M518.516 270.968V-72.7588M543.04 270.968V-72.7588M567.567 270.968V-72.7588M592.093 270.968L592.093 -72.7588M616.62 270.968V-72.7588M641.147 270.968V-72.7588M665.674 270.968V-72.7588M690.198 270.968L690.198 -72.7588M714.725 270.968V-72.7588M739.252 270.968V-72.7588M763.778 270.968V-72.7588M788.305 270.968V-72.7588M812.832 270.968L812.832 -72.7588M837.359 270.968V-72.7588M861.883 270.968L861.883 -72.7588M886.41 270.968V-72.7588M886.499 0.910433L-609.606 0.910292M886.499 25.6153L-609.606 25.6151M886.499 50.1405L-609.606 50.1403M886.499 74.6691L-609.606 74.669M886.499 99.1943L-609.606 99.1942M886.499 123.72L-609.606 123.719M886.499 148.248L-609.606 148.248M886.499 172.773L-609.606 172.773M886.499 197.478L-609.606 197.478M886.499 222.005L-609.606 222.005M886.499 246.532L-609.606 246.532M886.499 271.057L-609.606 271.057" stroke="#2525AF"/>
</g>
<g filter="url(#filter1_f_1211_2192)">
<ellipse cx="139.5" cy="-19.5" rx="84.5" ry="44.5" fill="#1F53FF"/>
</g>
<rect x="33.9141" y="32.0342" width="209.163" height="154.517" rx="11.4919" fill="#131420"/>
<g clip-path="url(#clip1_1211_2192)">
<rect width="59.5424" height="90.3769" transform="translate(227.352 20.1494) rotate(90)" fill="#191B32"/>
<circle cx="155.584" cy="36.6297" r="7.97443" fill="#0035E1"/>
<circle cx="181.099" cy="36.6297" r="7.97443" fill="#1242DD"/>
<circle cx="206.615" cy="36.6297" r="7.97443" fill="#1F53FF"/>
<circle cx="155.584" cy="62.1473" r="7.97443" fill="#315BE4"/>
<circle cx="181.099" cy="62.1473" r="7.97443" fill="#5179FF"/>
<circle cx="206.623" cy="62.1473" r="7.97443" fill="#84A1FF"/>
</g>
<rect x="229.977" y="77.0977" width="5.81395" height="5.81395" transform="rotate(90 229.977 77.0977)" fill="#1F53FF"/>
<rect x="229.977" y="16.959" width="5.81395" height="5.81395" transform="rotate(90 229.977 16.959)" fill="#1F53FF"/>
<rect x="139.602" y="77.0977" width="5.81395" height="5.81395" transform="rotate(90 139.602 77.0977)" fill="#1F53FF"/>
<rect x="139.602" y="16.959" width="5.81395" height="5.81395" transform="rotate(90 139.602 16.959)" fill="#1F53FF"/>
<g clip-path="url(#clip2_1211_2192)">
<rect width="98.6348" height="70.4534" transform="translate(119.648 45.2246) rotate(90)" fill="#191B32"/>
</g>
<rect x="122.477" y="141.184" width="5.65306" height="5.65306" transform="rotate(90 122.477 141.184)" fill="#1F53FF"/>
<rect x="122.477" y="41.5605" width="5.65306" height="5.65306" transform="rotate(90 122.477 41.5605)" fill="#1F53FF"/>
<rect x="51.8125" y="141.184" width="5.65306" height="5.65306" transform="rotate(90 51.8125 141.184)" fill="#1F53FF"/>
<rect x="51.9219" y="41.5605" width="5.65306" height="5.65306" transform="rotate(90 51.9219 41.5605)" fill="#1F53FF"/>
<rect x="58.1484" y="53.7041" width="53.2796" height="23.2024" rx="1.62177" fill="#1F53FF"/>
<rect x="58.1484" y="82.5596" width="53.2796" height="23.2024" rx="1.62177" fill="#1F53FF"/>
<rect x="58.1484" y="111.414" width="53.2796" height="23.2024" rx="1.62177" fill="#1F53FF"/>
<path d="M134.765 174.177L161.836 110.984H171.744L198.737 174.177H189.766L181.652 155.297H151.616L143.581 174.177H134.765ZM154.503 147.652H178.922L166.985 119.41H166.595L154.503 147.652Z" fill="#292C3E"/>
<path d="M212.168 175.492C207.669 175.492 204.118 174.39 201.515 172.184C198.957 169.935 197.678 167.001 197.678 163.384C197.678 159.591 198.957 156.658 201.515 154.584C204.074 152.467 207.757 151.408 212.565 151.408H226.129V149.622C226.129 143.491 222.754 140.425 216.006 140.425C210.492 140.425 207.161 142.498 206.015 146.645H198.538C199.2 142.719 201.074 139.675 204.162 137.514C207.294 135.352 211.286 134.272 216.138 134.272C221.652 134.272 225.864 135.573 228.775 138.175C231.731 140.778 233.208 144.527 233.208 149.424V167.09H236.781V174.765H228.841V168.677H226.063C224.695 170.795 222.82 172.471 220.439 173.706C218.057 174.897 215.3 175.492 212.168 175.492ZM213.16 169.538C215.542 169.538 217.726 169.052 219.711 168.082C221.696 167.112 223.262 165.788 224.408 164.112C225.555 162.436 226.129 160.605 226.129 158.62V156.834H213.028C207.47 156.834 204.691 158.907 204.691 163.053C204.691 165.038 205.441 166.626 206.941 167.817C208.441 168.964 210.514 169.538 213.16 169.538Z" fill="#292C3E"/>
<rect width="277" height="217.643" rx="18.8435" fill="url(#paint1_linear_1211_2192)" fill-opacity="0.8"/>
</g>
<defs>
<filter id="filter0_f_1211_2192" x="-130" y="-245" width="537" height="457" filterUnits="userSpaceOnUse" color-interpolation-filters="sRGB">
<feFlood flood-opacity="0" result="BackgroundImageFix"/>
<feBlend mode="normal" in="SourceGraphic" in2="BackgroundImageFix" result="shape"/>
<feGaussianBlur stdDeviation="92" result="effect1_foregroundBlur_1211_2192"/>
</filter>
<filter id="filter1_f_1211_2192" x="-129" y="-248" width="537" height="457" filterUnits="userSpaceOnUse" color-interpolation-filters="sRGB">
<feFlood flood-opacity="0" result="BackgroundImageFix"/>
<feBlend mode="normal" in="SourceGraphic" in2="BackgroundImageFix" result="shape"/>
<feGaussianBlur stdDeviation="92" result="effect1_foregroundBlur_1211_2192"/>
</filter>
<radialGradient id="paint0_radial_1211_2192" cx="0" cy="0" r="1" gradientUnits="userSpaceOnUse" gradientTransform="translate(138.402 50.5) rotate(90) scale(248.136 263.752)">
<stop/>
<stop offset="0.630476" stop-color="#666666" stop-opacity="0"/>
</radialGradient>
<linearGradient id="paint1_linear_1211_2192" x1="277" y1="108.821" x2="0" y2="108.821" gradientUnits="userSpaceOnUse">
<stop stop-color="#090A13"/>
<stop offset="0.144085" stop-color="#090A13" stop-opacity="0.5"/>
<stop offset="0.46056" stop-color="#090A13" stop-opacity="0.15"/>
<stop offset="0.881828" stop-color="#090A13" stop-opacity="0.5"/>
<stop offset="1" stop-color="#090A13"/>
</linearGradient>
<clipPath id="clip0_1211_2192">
<rect width="277" height="217" rx="20" fill="white"/>
</clipPath>
<clipPath id="clip1_1211_2192">
<rect width="59.5424" height="90.3769" fill="white" transform="translate(227.352 20.1494) rotate(90)"/>
</clipPath>
<clipPath id="clip2_1211_2192">
<rect width="98.6348" height="70.4534" fill="white" transform="translate(119.648 45.2246) rotate(90)"/>
</clipPath>
</defs>
</svg>
