<svg width="277" height="217" viewBox="0 0 277 217" fill="none" xmlns="http://www.w3.org/2000/svg">
<g clip-path="url(#clip0_1211_4061)">
<rect width="277" height="217" rx="18.8435" fill="#090A13"/>
<g filter="url(#filter0_f_1211_4061)">
<ellipse cx="138.5" cy="-16.5" rx="84.5" ry="44.5" fill="#1F53FF"/>
</g>
<mask id="mask0_1211_4061" style="mask-type:alpha" maskUnits="userSpaceOnUse" x="-611" y="-74" width="1498" height="346">
<path d="M886.499 -72.6687L-609.606 -72.6688M886.499 -48.1434L-609.606 -48.1436M886.499 -23.6165L-609.606 -23.6166M-609.695 270.968L-609.695 -72.7588M-585.168 270.968L-585.168 -72.7588M-560.645 270.968L-560.645 -72.7588M-536.118 270.968L-536.118 -72.7588M-511.591 270.968L-511.591 -72.7588M-487.064 270.968L-487.064 -72.7588M-462.537 270.968L-462.537 -72.7588M-438.01 270.968L-438.01 -72.7588M-413.487 270.968L-413.487 -72.7588M-388.96 270.968L-388.96 -72.7588M-364.433 270.968L-364.433 -72.7588M-339.906 270.968L-339.906 -72.7588M-315.379 270.968L-315.379 -72.7588M-290.852 270.968L-290.852 -72.7588M-266.325 270.968L-266.325 -72.7588M-241.802 270.968L-241.802 -72.7588M-217.275 270.968L-217.275 -72.7588M-192.748 270.968L-192.748 -72.7588M-168.224 270.968L-168.224 -72.7588M-143.697 270.968L-143.697 -72.7588M-119.167 270.968L-119.167 -72.7588M-94.6435 270.968L-94.6435 -72.7588M-70.1166 270.968L-70.1166 -72.7588M-45.5896 270.968L-45.5896 -72.7588M-21.0627 270.968L-21.0626 -72.7588M3.46074 270.968L3.4608 -72.7588M27.9877 270.968L27.9878 -72.7588M52.5147 270.968L52.5147 -72.7588M77.0416 270.968L77.0416 -72.7588M101.569 270.968L101.569 -72.7588M126.095 270.968L126.095 -72.7588M150.619 270.968L150.619 -72.7588M175.146 270.968L175.146 -72.7588M199.673 270.968L199.673 -72.7588M224.196 270.968L224.196 -72.7588M248.727 270.968L248.727 -72.7588M273.254 270.968L273.254 -72.7588M297.777 270.968L297.777 -72.7588M322.304 270.968L322.304 -72.7588M346.831 270.968V-72.7588M371.358 270.968L371.358 -72.7588M395.881 270.968V-72.7588M420.412 270.968L420.412 -72.7588M444.939 270.968L444.939 -72.7588M469.462 270.968L469.462 -72.7588M493.989 270.968L493.989 -72.7588M518.516 270.968V-72.7588M543.04 270.968V-72.7588M567.567 270.968V-72.7588M592.093 270.968L592.093 -72.7588M616.62 270.968V-72.7588M641.147 270.968V-72.7588M665.674 270.968V-72.7588M690.198 270.968L690.198 -72.7588M714.725 270.968V-72.7588M739.252 270.968V-72.7588M763.778 270.968V-72.7588M788.305 270.968V-72.7588M812.832 270.968L812.832 -72.7588M837.359 270.968V-72.7588M861.883 270.968L861.883 -72.7588M886.41 270.968V-72.7588M886.499 0.910433L-609.606 0.910292M886.499 25.6153L-609.606 25.6151M886.499 50.1405L-609.606 50.1403M886.499 74.6691L-609.606 74.669M886.499 99.1943L-609.606 99.1942M886.499 123.72L-609.606 123.719M886.499 148.248L-609.606 148.248M886.499 172.773L-609.606 172.773M886.499 197.478L-609.606 197.478M886.499 222.005L-609.606 222.005M886.499 246.532L-609.606 246.532M886.499 271.057L-609.606 271.057" stroke="url(#paint0_radial_1211_4061)"/>
</mask>
<g mask="url(#mask0_1211_4061)">
<path opacity="0.43" d="M886.499 -72.6687L-609.606 -72.6688M886.499 -48.1434L-609.606 -48.1436M886.499 -23.6165L-609.606 -23.6166M-609.695 270.968L-609.695 -72.7588M-585.168 270.968L-585.168 -72.7588M-560.645 270.968L-560.645 -72.7588M-536.118 270.968L-536.118 -72.7588M-511.591 270.968L-511.591 -72.7588M-487.064 270.968L-487.064 -72.7588M-462.537 270.968L-462.537 -72.7588M-438.01 270.968L-438.01 -72.7588M-413.487 270.968L-413.487 -72.7588M-388.96 270.968L-388.96 -72.7588M-364.433 270.968L-364.433 -72.7588M-339.906 270.968L-339.906 -72.7588M-315.379 270.968L-315.379 -72.7588M-290.852 270.968L-290.852 -72.7588M-266.325 270.968L-266.325 -72.7588M-241.802 270.968L-241.802 -72.7588M-217.275 270.968L-217.275 -72.7588M-192.748 270.968L-192.748 -72.7588M-168.224 270.968L-168.224 -72.7588M-143.697 270.968L-143.697 -72.7588M-119.167 270.968L-119.167 -72.7588M-94.6435 270.968L-94.6435 -72.7588M-70.1166 270.968L-70.1166 -72.7588M-45.5896 270.968L-45.5896 -72.7588M-21.0627 270.968L-21.0626 -72.7588M3.46074 270.968L3.4608 -72.7588M27.9877 270.968L27.9878 -72.7588M52.5147 270.968L52.5147 -72.7588M77.0416 270.968L77.0416 -72.7588M101.569 270.968L101.569 -72.7588M126.095 270.968L126.095 -72.7588M150.619 270.968L150.619 -72.7588M175.146 270.968L175.146 -72.7588M199.673 270.968L199.673 -72.7588M224.196 270.968L224.196 -72.7588M248.727 270.968L248.727 -72.7588M273.254 270.968L273.254 -72.7588M297.777 270.968L297.777 -72.7588M322.304 270.968L322.304 -72.7588M346.831 270.968V-72.7588M371.358 270.968L371.358 -72.7588M395.881 270.968V-72.7588M420.412 270.968L420.412 -72.7588M444.939 270.968L444.939 -72.7588M469.462 270.968L469.462 -72.7588M493.989 270.968L493.989 -72.7588M518.516 270.968V-72.7588M543.04 270.968V-72.7588M567.567 270.968V-72.7588M592.093 270.968L592.093 -72.7588M616.62 270.968V-72.7588M641.147 270.968V-72.7588M665.674 270.968V-72.7588M690.198 270.968L690.198 -72.7588M714.725 270.968V-72.7588M739.252 270.968V-72.7588M763.778 270.968V-72.7588M788.305 270.968V-72.7588M812.832 270.968L812.832 -72.7588M837.359 270.968V-72.7588M861.883 270.968L861.883 -72.7588M886.41 270.968V-72.7588M886.499 0.910433L-609.606 0.910292M886.499 25.6153L-609.606 25.6151M886.499 50.1405L-609.606 50.1403M886.499 74.6691L-609.606 74.669M886.499 99.1943L-609.606 99.1942M886.499 123.72L-609.606 123.719M886.499 148.248L-609.606 148.248M886.499 172.773L-609.606 172.773M886.499 197.478L-609.606 197.478M886.499 222.005L-609.606 222.005M886.499 246.532L-609.606 246.532M886.499 271.057L-609.606 271.057" stroke="#2525AF"/>
</g>
<rect x="23.5469" y="42.9766" width="84.3984" height="84.3984" rx="17.3421" transform="rotate(-13.2361 23.5469 42.9766)" fill="#1F53FF"/>
<path d="M86.0108 56.8389C92.7092 63.0257 97.1147 70.7455 98.4449 80.513C98.4506 80.5543 98.4384 80.5963 98.4112 80.6284C95.3038 84.2955 92.0562 86.8414 88.7259 88.8065C88.6999 88.8217 88.6699 88.8282 88.64 88.8253C88.61 88.8224 88.5817 88.8101 88.559 88.7903C87.4551 87.8222 86.4121 86.7732 85.4482 85.6408C85.3924 85.5738 85.4055 85.4743 85.4766 85.426C86.5677 84.6896 87.5787 83.8766 88.5228 82.9737C88.5971 82.9025 88.5733 82.7766 88.4795 82.7355C88.206 82.6164 87.9326 82.4879 87.6692 82.357C87.62 82.3329 87.5629 82.3394 87.5215 82.3731C81.1857 87.3554 73.3924 89.1891 65.4156 87.5743C65.3639 87.5642 65.31 87.5845 65.2777 87.6271C65.1008 87.8616 64.9125 88.097 64.723 88.3251C64.6573 88.4036 64.6932 88.5267 64.7921 88.5572C66.0368 88.9323 67.3071 89.2213 68.6111 89.3966C68.6956 89.4082 68.7534 89.4887 68.7328 89.5736C68.3896 91.0154 67.9238 92.4194 67.3519 93.7817C67.3261 93.8375 67.2707 93.8733 67.2094 93.869C63.3693 93.5909 59.3273 92.7602 54.9108 90.8634C54.8737 90.8464 54.842 90.813 54.8292 90.7733C52.1188 82.6915 51.7126 73.9584 55.3969 64.0401C55.4053 64.0141 55.4221 63.9915 55.4438 63.9753C57.9444 62.0183 60.7259 60.357 63.7394 59.0729C63.7945 59.0506 63.8579 59.0638 63.8996 59.1077C64.4507 59.7085 65.1032 60.4918 65.5741 61.1465C68.7659 59.8579 72.1292 59.0666 75.6299 58.7805C75.7631 58 75.9789 56.9961 76.2026 56.213C76.2104 56.1845 76.227 56.1592 76.25 56.1408C76.273 56.1224 76.3011 56.1118 76.3305 56.1105C79.6025 55.9174 82.8329 56.1642 85.9412 56.7997C85.9684 56.8044 85.9929 56.8174 86.0108 56.8389ZM71.0654 76.934C70.5254 74.4834 68.2816 72.8784 66.062 73.4006C63.8604 73.9186 62.5806 76.334 63.1594 78.7942C63.7381 81.2539 65.9954 82.837 68.1622 82.3272C70.3643 81.8091 71.6442 79.3937 71.0654 76.934ZM85.681 73.4952C85.141 71.0446 82.8972 69.4396 80.6781 69.9617C78.476 70.4798 77.1962 72.8952 77.775 75.3554C78.3537 77.815 80.6109 79.3982 82.7784 78.8883C84.9975 78.3661 86.2597 75.9549 85.681 73.4952Z" fill="#EDF3FF"/>
<rect x="185.602" y="58.9932" width="47.0975" height="47.0975" rx="9.67756" transform="rotate(-13.2361 185.602 58.9932)" fill="#1F53FF"/>
<path d="M204.609 77.4643C204.609 77.4643 212.648 71.6062 215.432 69.5545C216.493 68.746 220.118 66.1053 220.118 66.1053C220.118 66.1053 221.801 64.9273 222.07 66.7636C222.192 67.5169 222.39 70.2079 222.638 73.1107C222.953 77.2267 223.303 81.7253 223.303 81.7253C223.303 81.7253 223.487 82.9672 222.66 83.3852C221.833 83.8033 220.164 83.1903 219.856 83.0392C219.613 82.929 215.39 81.4084 213.775 80.5593C213.339 80.3267 212.777 79.7885 213.428 78.8532C214.874 76.6693 216.581 73.977 217.598 72.2851C218.068 71.5042 218.338 69.8763 216.182 72.283C213.13 75.7386 210.093 79.0233 210.093 79.0233C210.093 79.0233 209.392 79.7469 207.732 79.6345C206.073 79.5223 204.118 79.3117 204.118 79.3117C204.118 79.3117 202.693 78.809 204.609 77.4643Z" fill="white"/>
<rect x="125.656" y="120.234" width="67.3871" height="67.3871" rx="13.8467" transform="rotate(2.70158 125.656 120.234)" fill="#1F53FF"/>
<g clip-path="url(#clip1_1211_4061)">
<path d="M166.455 142.957L170.784 143.161L160.768 153.536L171.181 168.741L162.466 168.33L156.064 159.086L147.832 167.64L143.503 167.436L154.119 156.335L144.141 141.904L153.072 142.325L158.852 150.766L166.455 142.957ZM163.857 165.849L166.257 165.962L151.695 144.713L149.117 144.591L163.857 165.849Z" fill="#EDF3FF"/>
</g>
<rect x="127.188" y="53.8721" width="35.8319" height="35.8319" rx="7.36272" transform="rotate(-24.1596 127.188 53.8721)" fill="#131420"/>
<path d="M142.477 63.9727C141.961 64.2041 141.773 64.7052 142.006 65.2255L145.857 73.8094C146.09 74.3296 146.589 74.5221 147.105 74.2907C147.621 74.0593 147.81 73.5582 147.576 73.038L143.726 64.4541C143.492 63.9338 142.993 63.7413 142.477 63.9727Z" fill="#28304E"/>
<path d="M156.79 57.4183L151.422 59.8262L151.058 56.2335C150.907 54.7365 149.206 53.7261 147.734 54.3863C147.128 54.6582 146.639 55.1906 146.487 55.7802L144.625 61.8317C144.379 62.6727 144.383 63.6097 144.734 64.3913L148.318 72.3817C148.824 73.5108 150.08 73.991 151.205 73.4861L159.257 69.8742C160.383 69.3693 161.071 68.1216 160.911 66.8372L159.863 59.1695C159.625 57.7113 158.089 56.8358 156.79 57.4183Z" fill="#28304E"/>
<rect x="37.6562" y="153.377" width="46.5746" height="46.5746" rx="9.57012" transform="rotate(-7.20363 37.6562 153.377)" fill="#131420"/>
<path d="M73.635 162.999C73.4787 161.762 72.3498 160.876 71.1126 161.032L53.1167 163.306C51.8795 163.462 50.9951 164.602 51.1514 165.839L52.8564 179.336C53.0127 180.573 54.1529 181.458 55.3901 181.302L71.1365 179.312L76.2039 183.243L73.635 162.999Z" fill="#28304E"/>
<rect x="208.375" y="135.724" width="40.46" height="40.46" rx="8.31371" transform="rotate(-13.8431 208.375 135.724)" fill="#131420"/>
<path d="M241.448 145.907C239.229 144.698 235.787 143.595 231.712 144.599C227.637 145.603 225.101 148.179 223.698 150.281C223.109 151.011 222.974 152.02 223.2 152.94C223.427 153.86 224.016 154.69 224.876 155.064C227.073 156.181 230.537 157.376 234.613 156.372C238.688 155.368 241.223 152.792 242.626 150.69C243.215 149.96 243.351 148.951 243.124 148.031C242.897 147.111 242.308 146.281 241.448 145.907Z" fill="#28304E"/>
<path d="M233.656 152.477C234.807 152.193 235.509 151.031 235.226 149.881C234.942 148.73 233.78 148.028 232.63 148.311C231.479 148.594 230.777 149.757 231.06 150.907C231.344 152.057 232.506 152.76 233.656 152.477Z" fill="#191B32"/>
<rect width="277" height="217.643" rx="18.8435" fill="url(#paint1_linear_1211_4061)" fill-opacity="0.8"/>
</g>
<defs>
<filter id="filter0_f_1211_4061" x="-130" y="-245" width="537" height="457" filterUnits="userSpaceOnUse" color-interpolation-filters="sRGB">
<feFlood flood-opacity="0" result="BackgroundImageFix"/>
<feBlend mode="normal" in="SourceGraphic" in2="BackgroundImageFix" result="shape"/>
<feGaussianBlur stdDeviation="92" result="effect1_foregroundBlur_1211_4061"/>
</filter>
<radialGradient id="paint0_radial_1211_4061" cx="0" cy="0" r="1" gradientUnits="userSpaceOnUse" gradientTransform="translate(138.402 50.5) rotate(90) scale(248.136 263.752)">
<stop/>
<stop offset="0.630476" stop-color="#666666" stop-opacity="0"/>
</radialGradient>
<linearGradient id="paint1_linear_1211_4061" x1="277" y1="108.821" x2="-7.53742" y2="108.35" gradientUnits="userSpaceOnUse">
<stop stop-color="#090A13"/>
<stop offset="0.250869" stop-color="#090A13" stop-opacity="0.5"/>
<stop offset="0.403765" stop-color="#090A13" stop-opacity="0.15"/>
<stop offset="0.623137" stop-color="#090A13" stop-opacity="0.15"/>
<stop offset="0.828896" stop-color="#090A13" stop-opacity="0.442727"/>
<stop offset="1" stop-color="#090A13"/>
</linearGradient>
<clipPath id="clip0_1211_4061">
<rect width="277" height="217" rx="18.8435" fill="white"/>
</clipPath>
<clipPath id="clip1_1211_4061">
<rect width="28.2653" height="25.533" fill="white" transform="translate(143.203 142.799)"/>
</clipPath>
</defs>
</svg>
