<svg width="277" height="217" viewBox="0 0 277 217" fill="none" xmlns="http://www.w3.org/2000/svg">
<g clip-path="url(#clip0_1211_4423)">
<rect width="277" height="217" rx="18.8435" fill="#090A13"/>
<g filter="url(#filter0_f_1211_4423)">
<ellipse cx="138.5" cy="-16.5" rx="84.5" ry="44.5" fill="#1F53FF"/>
</g>
<mask id="mask0_1211_4423" style="mask-type:alpha" maskUnits="userSpaceOnUse" x="-611" y="-74" width="1498" height="346">
<path d="M886.499 -72.6687L-609.606 -72.6688M886.499 -48.1434L-609.606 -48.1436M886.499 -23.6165L-609.606 -23.6166M-609.695 270.968L-609.695 -72.7588M-585.168 270.968L-585.168 -72.7588M-560.645 270.968L-560.645 -72.7588M-536.118 270.968L-536.118 -72.7588M-511.591 270.968L-511.591 -72.7588M-487.064 270.968L-487.064 -72.7588M-462.537 270.968L-462.537 -72.7588M-438.01 270.968L-438.01 -72.7588M-413.487 270.968L-413.487 -72.7588M-388.96 270.968L-388.96 -72.7588M-364.433 270.968L-364.433 -72.7588M-339.906 270.968L-339.906 -72.7588M-315.379 270.968L-315.379 -72.7588M-290.852 270.968L-290.852 -72.7588M-266.325 270.968L-266.325 -72.7588M-241.802 270.968L-241.802 -72.7588M-217.275 270.968L-217.275 -72.7588M-192.748 270.968L-192.748 -72.7588M-168.224 270.968L-168.224 -72.7588M-143.697 270.968L-143.697 -72.7588M-119.167 270.968L-119.167 -72.7588M-94.6435 270.968L-94.6435 -72.7588M-70.1166 270.968L-70.1166 -72.7588M-45.5896 270.968L-45.5896 -72.7588M-21.0627 270.968L-21.0626 -72.7588M3.46074 270.968L3.4608 -72.7588M27.9877 270.968L27.9878 -72.7588M52.5147 270.968L52.5147 -72.7588M77.0416 270.968L77.0416 -72.7588M101.569 270.968L101.569 -72.7588M126.095 270.968L126.095 -72.7588M150.619 270.968L150.619 -72.7588M175.146 270.968L175.146 -72.7588M199.673 270.968L199.673 -72.7588M224.196 270.968L224.196 -72.7588M248.727 270.968L248.727 -72.7588M273.254 270.968L273.254 -72.7588M297.777 270.968L297.777 -72.7588M322.304 270.968L322.304 -72.7588M346.831 270.968V-72.7588M371.358 270.968L371.358 -72.7588M395.881 270.968V-72.7588M420.412 270.968L420.412 -72.7588M444.939 270.968L444.939 -72.7588M469.462 270.968L469.462 -72.7588M493.989 270.968L493.989 -72.7588M518.516 270.968V-72.7588M543.04 270.968V-72.7588M567.567 270.968V-72.7588M592.093 270.968L592.093 -72.7588M616.62 270.968V-72.7588M641.147 270.968V-72.7588M665.674 270.968V-72.7588M690.198 270.968L690.198 -72.7588M714.725 270.968V-72.7588M739.252 270.968V-72.7588M763.778 270.968V-72.7588M788.305 270.968V-72.7588M812.832 270.968L812.832 -72.7588M837.359 270.968V-72.7588M861.883 270.968L861.883 -72.7588M886.41 270.968V-72.7588M886.499 0.910433L-609.606 0.910292M886.499 25.6153L-609.606 25.6151M886.499 50.1405L-609.606 50.1403M886.499 74.6691L-609.606 74.669M886.499 99.1943L-609.606 99.1942M886.499 123.72L-609.606 123.719M886.499 148.248L-609.606 148.248M886.499 172.773L-609.606 172.773M886.499 197.478L-609.606 197.478M886.499 222.005L-609.606 222.005M886.499 246.532L-609.606 246.532M886.499 271.057L-609.606 271.057" stroke="url(#paint0_radial_1211_4423)"/>
</mask>
<g mask="url(#mask0_1211_4423)">
<path opacity="0.43" d="M886.499 -72.6687L-609.606 -72.6688M886.499 -48.1434L-609.606 -48.1436M886.499 -23.6165L-609.606 -23.6166M-609.695 270.968L-609.695 -72.7588M-585.168 270.968L-585.168 -72.7588M-560.645 270.968L-560.645 -72.7588M-536.118 270.968L-536.118 -72.7588M-511.591 270.968L-511.591 -72.7588M-487.064 270.968L-487.064 -72.7588M-462.537 270.968L-462.537 -72.7588M-438.01 270.968L-438.01 -72.7588M-413.487 270.968L-413.487 -72.7588M-388.96 270.968L-388.96 -72.7588M-364.433 270.968L-364.433 -72.7588M-339.906 270.968L-339.906 -72.7588M-315.379 270.968L-315.379 -72.7588M-290.852 270.968L-290.852 -72.7588M-266.325 270.968L-266.325 -72.7588M-241.802 270.968L-241.802 -72.7588M-217.275 270.968L-217.275 -72.7588M-192.748 270.968L-192.748 -72.7588M-168.224 270.968L-168.224 -72.7588M-143.697 270.968L-143.697 -72.7588M-119.167 270.968L-119.167 -72.7588M-94.6435 270.968L-94.6435 -72.7588M-70.1166 270.968L-70.1166 -72.7588M-45.5896 270.968L-45.5896 -72.7588M-21.0627 270.968L-21.0626 -72.7588M3.46074 270.968L3.4608 -72.7588M27.9877 270.968L27.9878 -72.7588M52.5147 270.968L52.5147 -72.7588M77.0416 270.968L77.0416 -72.7588M101.569 270.968L101.569 -72.7588M126.095 270.968L126.095 -72.7588M150.619 270.968L150.619 -72.7588M175.146 270.968L175.146 -72.7588M199.673 270.968L199.673 -72.7588M224.196 270.968L224.196 -72.7588M248.727 270.968L248.727 -72.7588M273.254 270.968L273.254 -72.7588M297.777 270.968L297.777 -72.7588M322.304 270.968L322.304 -72.7588M346.831 270.968V-72.7588M371.358 270.968L371.358 -72.7588M395.881 270.968V-72.7588M420.412 270.968L420.412 -72.7588M444.939 270.968L444.939 -72.7588M469.462 270.968L469.462 -72.7588M493.989 270.968L493.989 -72.7588M518.516 270.968V-72.7588M543.04 270.968V-72.7588M567.567 270.968V-72.7588M592.093 270.968L592.093 -72.7588M616.62 270.968V-72.7588M641.147 270.968V-72.7588M665.674 270.968V-72.7588M690.198 270.968L690.198 -72.7588M714.725 270.968V-72.7588M739.252 270.968V-72.7588M763.778 270.968V-72.7588M788.305 270.968V-72.7588M812.832 270.968L812.832 -72.7588M837.359 270.968V-72.7588M861.883 270.968L861.883 -72.7588M886.41 270.968V-72.7588M886.499 0.910433L-609.606 0.910292M886.499 25.6153L-609.606 25.6151M886.499 50.1405L-609.606 50.1403M886.499 74.6691L-609.606 74.669M886.499 99.1943L-609.606 99.1942M886.499 123.72L-609.606 123.719M886.499 148.248L-609.606 148.248M886.499 172.773L-609.606 172.773M886.499 197.478L-609.606 197.478M886.499 222.005L-609.606 222.005M886.499 246.532L-609.606 246.532M886.499 271.057L-609.606 271.057" stroke="#2525AF"/>
</g>
<path d="M211.081 128.587C230.197 128.587 245.694 144.141 245.694 163.328C245.694 168.723 244.469 173.829 242.284 178.384C243.573 180.816 246.338 185.097 250.508 186.762C250.508 186.762 246.168 193.026 235.519 187.931C229.259 194.197 220.622 198.07 211.082 198.07C191.966 198.07 176.469 182.516 176.469 163.328C176.467 144.143 191.964 128.587 211.081 128.587Z" fill="#191B32"/>
<path fill-rule="evenodd" clip-rule="evenodd" d="M129.337 24.9316C84.8086 24.9316 48.7105 61.0297 48.7105 105.559C48.7105 118.076 51.5644 129.928 56.6542 140.499C53.6497 146.142 47.2101 156.077 37.5 159.944C37.5 159.944 47.6111 174.478 72.4166 162.656C86.9994 177.195 107.118 186.186 129.339 186.186C173.868 186.186 209.966 150.088 209.966 105.559C209.965 61.0297 173.866 24.9316 129.337 24.9316ZM130.387 169.593C95.081 169.593 66.3555 140.868 66.3555 105.56C66.3555 70.2519 95.081 41.5283 130.387 41.5283C165.697 41.5283 194.422 70.2538 194.422 105.56C194.422 140.866 165.695 169.593 130.387 169.593ZM130.387 50.9118C100.253 50.9118 75.7389 75.4277 75.7389 105.562C75.7389 135.696 100.253 160.212 130.387 160.212C160.521 160.212 185.039 135.696 185.039 105.562C185.037 75.4258 160.521 50.9118 130.387 50.9118ZM91.9414 105.56C91.9414 126.758 109.186 144.003 130.383 144.003C151.581 144.003 168.826 126.758 168.826 105.56C168.826 84.3613 151.581 67.1162 130.383 67.1162C109.186 67.1162 91.9414 84.3632 91.9414 105.56ZM101.135 105.56C101.135 89.4335 114.255 76.3119 130.383 76.3119C146.511 76.3119 159.633 89.4335 159.633 105.56C159.633 121.686 146.511 134.807 130.383 134.807C114.255 134.807 101.135 121.688 101.135 105.56Z" fill="#1F53FF"/>
<path d="M129.393 113.986C133.938 113.986 137.623 110.302 137.623 105.757C137.623 101.212 133.938 97.5273 129.393 97.5273C124.848 97.5273 121.164 101.212 121.164 105.757C121.164 110.302 124.848 113.986 129.393 113.986Z" fill="#EDF3FF"/>
<path d="M180.332 52.9534L128.148 103.624L130.848 106.404L183.031 55.7333L180.332 52.9534Z" fill="#EDF3FF"/>
<path d="M203.425 45.4901C203.337 45.7404 203.19 45.9732 202.989 46.1728L190.691 58.2615C190.464 58.4806 190.19 58.6371 189.897 58.7114C189.801 58.7349 189.705 58.7466 189.605 58.7466L178.471 58.5862C177.878 58.5784 177.399 58.1031 177.385 57.5104L177.117 46.0769C177.115 45.9791 177.127 45.8813 177.149 45.7854C177.229 45.4764 177.391 45.1849 177.624 44.958L189.914 32.8771C190.384 32.4115 191.041 32.2511 191.63 32.4526C192.17 32.6384 192.551 33.1079 192.625 33.681L193.693 42.0414C193.703 42.108 193.705 42.1764 193.701 42.2429C193.789 42.2351 193.877 42.2351 193.967 42.2488L202.228 43.4518C202.797 43.5359 203.263 43.9232 203.439 44.467C203.548 44.8015 203.539 45.1614 203.425 45.4901Z" fill="#EDF3FF"/>
<rect width="277" height="217.643" rx="18.8435" fill="url(#paint1_linear_1211_4423)" fill-opacity="0.8"/>
</g>
<defs>
<filter id="filter0_f_1211_4423" x="-130" y="-245" width="537" height="457" filterUnits="userSpaceOnUse" color-interpolation-filters="sRGB">
<feFlood flood-opacity="0" result="BackgroundImageFix"/>
<feBlend mode="normal" in="SourceGraphic" in2="BackgroundImageFix" result="shape"/>
<feGaussianBlur stdDeviation="92" result="effect1_foregroundBlur_1211_4423"/>
</filter>
<radialGradient id="paint0_radial_1211_4423" cx="0" cy="0" r="1" gradientUnits="userSpaceOnUse" gradientTransform="translate(138.402 50.5) rotate(90) scale(248.136 263.752)">
<stop/>
<stop offset="0.630476" stop-color="#666666" stop-opacity="0"/>
</radialGradient>
<linearGradient id="paint1_linear_1211_4423" x1="277" y1="108.821" x2="-63" y2="108.821" gradientUnits="userSpaceOnUse">
<stop stop-color="#090A13"/>
<stop offset="0.0650622" stop-color="#090A13" stop-opacity="0.5"/>
<stop offset="0.260063" stop-color="#090A13" stop-opacity="0.15"/>
<stop offset="0.62954" stop-color="#090A13" stop-opacity="0.45"/>
<stop offset="0.881828" stop-color="#090A13" stop-opacity="0.5"/>
<stop offset="1" stop-color="#090A13"/>
</linearGradient>
<clipPath id="clip0_1211_4423">
<rect width="277" height="217" rx="18.8435" fill="white"/>
</clipPath>
</defs>
</svg>
