<svg width="277" height="217" viewBox="0 0 277 217" fill="none" xmlns="http://www.w3.org/2000/svg">
<g clip-path="url(#clip0_1211_3853)">
<rect width="277" height="217" rx="18.8435" fill="#090A13"/>
<g filter="url(#filter0_f_1211_3853)">
<ellipse cx="138.5" cy="-16.5" rx="84.5" ry="44.5" fill="#1F53FF"/>
</g>
<mask id="mask0_1211_3853" style="mask-type:alpha" maskUnits="userSpaceOnUse" x="-611" y="-74" width="1498" height="346">
<path d="M886.499 -72.6687L-609.606 -72.6688M886.499 -48.1434L-609.606 -48.1436M886.499 -23.6165L-609.606 -23.6166M-609.695 270.968L-609.695 -72.7588M-585.168 270.968L-585.168 -72.7588M-560.645 270.968L-560.645 -72.7588M-536.118 270.968L-536.118 -72.7588M-511.591 270.968L-511.591 -72.7588M-487.064 270.968L-487.064 -72.7588M-462.537 270.968L-462.537 -72.7588M-438.01 270.968L-438.01 -72.7588M-413.487 270.968L-413.487 -72.7588M-388.96 270.968L-388.96 -72.7588M-364.433 270.968L-364.433 -72.7588M-339.906 270.968L-339.906 -72.7588M-315.379 270.968L-315.379 -72.7588M-290.852 270.968L-290.852 -72.7588M-266.325 270.968L-266.325 -72.7588M-241.802 270.968L-241.802 -72.7588M-217.275 270.968L-217.275 -72.7588M-192.748 270.968L-192.748 -72.7588M-168.224 270.968L-168.224 -72.7588M-143.697 270.968L-143.697 -72.7588M-119.167 270.968L-119.167 -72.7588M-94.6435 270.968L-94.6435 -72.7588M-70.1166 270.968L-70.1166 -72.7588M-45.5896 270.968L-45.5896 -72.7588M-21.0627 270.968L-21.0626 -72.7588M3.46074 270.968L3.4608 -72.7588M27.9877 270.968L27.9878 -72.7588M52.5147 270.968L52.5147 -72.7588M77.0416 270.968L77.0416 -72.7588M101.569 270.968L101.569 -72.7588M126.095 270.968L126.095 -72.7588M150.619 270.968L150.619 -72.7588M175.146 270.968L175.146 -72.7588M199.673 270.968L199.673 -72.7588M224.196 270.968L224.196 -72.7588M248.727 270.968L248.727 -72.7588M273.254 270.968L273.254 -72.7588M297.777 270.968L297.777 -72.7588M322.304 270.968L322.304 -72.7588M346.831 270.968V-72.7588M371.358 270.968L371.358 -72.7588M395.881 270.968V-72.7588M420.412 270.968L420.412 -72.7588M444.939 270.968L444.939 -72.7588M469.462 270.968L469.462 -72.7588M493.989 270.968L493.989 -72.7588M518.516 270.968V-72.7588M543.04 270.968V-72.7588M567.567 270.968V-72.7588M592.093 270.968L592.093 -72.7588M616.62 270.968V-72.7588M641.147 270.968V-72.7588M665.674 270.968V-72.7588M690.198 270.968L690.198 -72.7588M714.725 270.968V-72.7588M739.252 270.968V-72.7588M763.778 270.968V-72.7588M788.305 270.968V-72.7588M812.832 270.968L812.832 -72.7588M837.359 270.968V-72.7588M861.883 270.968L861.883 -72.7588M886.41 270.968V-72.7588M886.499 0.910433L-609.606 0.910292M886.499 25.6153L-609.606 25.6151M886.499 50.1405L-609.606 50.1403M886.499 74.6691L-609.606 74.669M886.499 99.1943L-609.606 99.1942M886.499 123.72L-609.606 123.719M886.499 148.248L-609.606 148.248M886.499 172.773L-609.606 172.773M886.499 197.478L-609.606 197.478M886.499 222.005L-609.606 222.005M886.499 246.532L-609.606 246.532M886.499 271.057L-609.606 271.057" stroke="url(#paint0_radial_1211_3853)"/>
</mask>
<g mask="url(#mask0_1211_3853)">
<path opacity="0.43" d="M886.499 -72.6687L-609.606 -72.6688M886.499 -48.1434L-609.606 -48.1436M886.499 -23.6165L-609.606 -23.6166M-609.695 270.968L-609.695 -72.7588M-585.168 270.968L-585.168 -72.7588M-560.645 270.968L-560.645 -72.7588M-536.118 270.968L-536.118 -72.7588M-511.591 270.968L-511.591 -72.7588M-487.064 270.968L-487.064 -72.7588M-462.537 270.968L-462.537 -72.7588M-438.01 270.968L-438.01 -72.7588M-413.487 270.968L-413.487 -72.7588M-388.96 270.968L-388.96 -72.7588M-364.433 270.968L-364.433 -72.7588M-339.906 270.968L-339.906 -72.7588M-315.379 270.968L-315.379 -72.7588M-290.852 270.968L-290.852 -72.7588M-266.325 270.968L-266.325 -72.7588M-241.802 270.968L-241.802 -72.7588M-217.275 270.968L-217.275 -72.7588M-192.748 270.968L-192.748 -72.7588M-168.224 270.968L-168.224 -72.7588M-143.697 270.968L-143.697 -72.7588M-119.167 270.968L-119.167 -72.7588M-94.6435 270.968L-94.6435 -72.7588M-70.1166 270.968L-70.1166 -72.7588M-45.5896 270.968L-45.5896 -72.7588M-21.0627 270.968L-21.0626 -72.7588M3.46074 270.968L3.4608 -72.7588M27.9877 270.968L27.9878 -72.7588M52.5147 270.968L52.5147 -72.7588M77.0416 270.968L77.0416 -72.7588M101.569 270.968L101.569 -72.7588M126.095 270.968L126.095 -72.7588M150.619 270.968L150.619 -72.7588M175.146 270.968L175.146 -72.7588M199.673 270.968L199.673 -72.7588M224.196 270.968L224.196 -72.7588M248.727 270.968L248.727 -72.7588M273.254 270.968L273.254 -72.7588M297.777 270.968L297.777 -72.7588M322.304 270.968L322.304 -72.7588M346.831 270.968V-72.7588M371.358 270.968L371.358 -72.7588M395.881 270.968V-72.7588M420.412 270.968L420.412 -72.7588M444.939 270.968L444.939 -72.7588M469.462 270.968L469.462 -72.7588M493.989 270.968L493.989 -72.7588M518.516 270.968V-72.7588M543.04 270.968V-72.7588M567.567 270.968V-72.7588M592.093 270.968L592.093 -72.7588M616.62 270.968V-72.7588M641.147 270.968V-72.7588M665.674 270.968V-72.7588M690.198 270.968L690.198 -72.7588M714.725 270.968V-72.7588M739.252 270.968V-72.7588M763.778 270.968V-72.7588M788.305 270.968V-72.7588M812.832 270.968L812.832 -72.7588M837.359 270.968V-72.7588M861.883 270.968L861.883 -72.7588M886.41 270.968V-72.7588M886.499 0.910433L-609.606 0.910292M886.499 25.6153L-609.606 25.6151M886.499 50.1405L-609.606 50.1403M886.499 74.6691L-609.606 74.669M886.499 99.1943L-609.606 99.1942M886.499 123.72L-609.606 123.719M886.499 148.248L-609.606 148.248M886.499 172.773L-609.606 172.773M886.499 197.478L-609.606 197.478M886.499 222.005L-609.606 222.005M886.499 246.532L-609.606 246.532M886.499 271.057L-609.606 271.057" stroke="#2525AF"/>
</g>
<g opacity="0.9">
<rect x="21.6719" y="68" width="94.1112" height="128.136" rx="8.68719" fill="#131420"/>
<path d="M21.6719 76.6872C21.6719 71.8894 25.5613 68 30.3591 68H107.096C111.894 68 115.783 71.8894 115.783 76.6872V128.086H21.6719V76.6872Z" fill="#1D1F2D"/>
<rect x="28.9062" y="169.676" width="37.6445" height="14.4787" rx="4.3436" fill="#1D202D"/>
<g filter="url(#filter1_dd_1211_3853)">
<rect x="32.5234" y="174.02" width="19.5462" height="1.44787" rx="0.723933" fill="#292C3E"/>
</g>
<rect x="32.5234" y="176.915" width="13.1521" height="3.94564" rx="1.97282" fill="#292C3E"/>
<rect x="69.4453" y="169.676" width="37.6445" height="14.4787" rx="4.3436" fill="#1D202D"/>
<g filter="url(#filter2_dd_1211_3853)">
<rect x="73.0625" y="174.02" width="19.5462" height="1.44787" rx="0.723933" fill="#292C3E"/>
</g>
<rect x="73.0625" y="176.915" width="13.1521" height="3.94564" rx="1.97282" fill="#292C3E"/>
<rect width="34.2459" height="3.61966" rx="1.80983" transform="matrix(-1 1.25175e-07 2.51682e-07 1 63.1562 146.909)" fill="#1D1F2D"/>
<rect x="65.8359" y="146.909" width="26.7855" height="3.61966" rx="1.80983" fill="#1D1F2D"/>
<rect x="28.9141" y="153.423" width="19.7282" height="3.94564" rx="1.97282" fill="#1D1F2D"/>
<rect x="51.5391" y="153.423" width="22.3586" height="3.94564" rx="1.97282" fill="#1D1F2D"/>
<rect x="28.9141" y="140.393" width="19.7282" height="3.94564" rx="1.97282" fill="#1D1F2D"/>
<rect x="51.5391" y="140.393" width="13.0308" height="3.61966" rx="1.80983" fill="#1D1F2D"/>
<rect x="83.2109" y="140.393" width="18.0983" height="3.61966" rx="1.80983" fill="#1D1F2D"/>
<rect x="67.4688" y="140.393" width="13.0308" height="3.61966" rx="1.80983" fill="#1D1F2D"/>
</g>
<g opacity="0.9">
<rect x="195.031" y="73.1895" width="65.0475" height="88.5646" rx="6.00438" fill="#131420"/>
<path d="M195.031 79.1938C195.031 75.8777 197.72 73.1895 201.036 73.1895H254.074C257.39 73.1895 260.079 75.8777 260.079 79.1938V114.72H195.031V79.1938Z" fill="#1D1F2D"/>
<rect x="200.039" y="143.466" width="26.019" height="10.0073" rx="3.00219" fill="#1D202D"/>
<g filter="url(#filter3_dd_1211_3853)">
<rect x="202.539" y="146.469" width="13.5099" height="1.00073" rx="0.500365" fill="#292C3E"/>
</g>
<rect x="202.539" y="148.47" width="9.09044" height="2.72713" rx="1.36357" fill="#292C3E"/>
<rect x="228.062" y="143.466" width="26.019" height="10.0073" rx="3.00219" fill="#1D202D"/>
<g filter="url(#filter4_dd_1211_3853)">
<rect x="230.562" y="146.469" width="13.5099" height="1.00073" rx="0.500365" fill="#292C3E"/>
</g>
<rect x="230.562" y="148.47" width="9.09044" height="2.72713" rx="1.36357" fill="#292C3E"/>
<rect width="23.67" height="2.50182" rx="1.25091" transform="matrix(-1 1.25175e-07 2.51682e-07 1 223.703 127.729)" fill="#1D1F2D"/>
<rect x="225.555" y="127.729" width="18.5135" height="2.50183" rx="1.25091" fill="#1D1F2D"/>
<rect x="200.039" y="132.231" width="13.6357" height="2.72713" rx="1.36357" fill="#1D1F2D"/>
<rect x="215.68" y="132.231" width="15.4538" height="2.72713" rx="1.36357" fill="#1D1F2D"/>
<rect x="200.039" y="123.226" width="13.6357" height="2.72713" rx="1.36357" fill="#1D1F2D"/>
<rect x="215.68" y="123.226" width="9.00657" height="2.50183" rx="1.25091" fill="#1D1F2D"/>
<rect x="237.562" y="123.226" width="12.5091" height="2.50183" rx="1.25091" fill="#1D1F2D"/>
<rect x="226.688" y="123.226" width="9.00657" height="2.50183" rx="1.25091" fill="#1D1F2D"/>
</g>
<rect x="77.2578" y="40.1494" width="122.483" height="166.765" rx="11.3061" fill="#131420"/>
<g filter="url(#filter5_dd_1211_3853)">
<g clip-path="url(#clip1_1211_3853)">
<path d="M77.2578 51.4555C77.2578 45.2113 82.3197 40.1494 88.5639 40.1494H188.435C194.679 40.1494 199.741 45.2113 199.741 51.4555V118.35H77.2578V51.4555Z" fill="#2053FE"/>
<path d="M139.673 112.376H136.298L143.196 105.081H139.946L141.112 103.873H143.543L145.652 106.211L139.673 112.376Z" fill="#EDF3FF"/>
<path d="M138.953 108.394L140.715 106.468H135.107L141.806 99.5068H138.333L131.906 106.211L133.792 108.394H138.953Z" fill="#EDF3FF"/>
<g style="mix-blend-mode:plus-lighter" filter="url(#filter6_f_1211_3853)">
<circle cx="139.439" cy="3.4046" r="25.4388" fill="#EDF3FF"/>
</g>
<g style="mix-blend-mode:plus-lighter" filter="url(#filter7_f_1211_3853)">
<circle cx="139.439" cy="3.4046" r="25.4388" fill="#EDF3FF"/>
</g>
</g>
</g>
<rect x="86.6797" y="172.479" width="48.9932" height="18.8435" rx="5.65306" fill="#1D202D"/>
<g filter="url(#filter8_dd_1211_3853)">
<rect x="91.3906" y="178.131" width="25.4388" height="1.88435" rx="0.942177" fill="#28304E"/>
</g>
<rect x="91.3906" y="181.899" width="17.1171" height="5.13513" rx="2.56757" fill="#1F53FF"/>
<rect x="139.438" y="172.479" width="48.9932" height="18.8435" rx="5.65306" fill="#1D202D"/>
<g filter="url(#filter9_dd_1211_3853)">
<rect x="144.148" y="178.131" width="25.4388" height="1.88435" rx="0.942177" fill="#28304E"/>
</g>
<rect x="144.148" y="181.899" width="17.1171" height="5.13513" rx="2.56757" fill="#1F53FF"/>
<path fill-rule="evenodd" clip-rule="evenodd" d="M129.079 132.484C130.119 132.484 130.963 133.328 130.963 134.369C130.963 135.409 130.119 136.253 129.079 136.253L88.5649 136.253C87.5242 136.253 86.6806 135.409 86.6806 134.369C86.6806 133.328 87.5242 132.484 88.5649 132.484L129.079 132.484ZM136.615 132.484C135.574 132.484 134.731 133.328 134.731 134.369C134.731 135.409 135.574 136.253 136.615 136.253H167.707C168.748 136.253 169.591 135.409 169.591 134.369C169.591 133.328 168.748 132.484 167.707 132.484H136.615ZM86.6797 142.848C86.6797 141.808 87.5233 140.964 88.564 140.964H110.234C111.275 140.964 112.118 141.808 112.118 142.848C112.118 143.889 111.275 144.733 110.234 144.733H88.564C87.5233 144.733 86.6797 143.889 86.6797 142.848ZM117.771 140.964C116.73 140.964 115.887 141.808 115.887 142.848C115.887 143.889 116.73 144.733 117.771 144.733H143.21C144.251 144.733 145.094 143.889 145.094 142.848C145.094 141.808 144.251 140.964 143.21 140.964H117.771Z" fill="url(#paint1_linear_1211_3853)"/>
<rect width="277" height="217.643" rx="18.8435" fill="url(#paint2_linear_1211_3853)" fill-opacity="0.8"/>
</g>
<defs>
<filter id="filter0_f_1211_3853" x="-130" y="-245" width="537" height="457" filterUnits="userSpaceOnUse" color-interpolation-filters="sRGB">
<feFlood flood-opacity="0" result="BackgroundImageFix"/>
<feBlend mode="normal" in="SourceGraphic" in2="BackgroundImageFix" result="shape"/>
<feGaussianBlur stdDeviation="92" result="effect1_foregroundBlur_1211_3853"/>
</filter>
<filter id="filter1_dd_1211_3853" x="15.4663" y="143.103" width="53.6612" height="35.5626" filterUnits="userSpaceOnUse" color-interpolation-filters="sRGB">
<feFlood flood-opacity="0" result="BackgroundImageFix"/>
<feColorMatrix in="SourceAlpha" type="matrix" values="0 0 0 0 0 0 0 0 0 0 0 0 0 0 0 0 0 0 127 0" result="hardAlpha"/>
<feOffset dy="-5.01251"/>
<feGaussianBlur stdDeviation="3.08462"/>
<feColorMatrix type="matrix" values="0 0 0 0 0.137255 0 0 0 0 0.313726 0 0 0 0 0.905882 0 0 0 0.0975551 0"/>
<feBlend mode="normal" in2="BackgroundImageFix" result="effect1_dropShadow_1211_3853"/>
<feColorMatrix in="SourceAlpha" type="matrix" values="0 0 0 0 0 0 0 0 0 0 0 0 0 0 0 0 0 0 127 0" result="hardAlpha"/>
<feOffset dy="-13.8589"/>
<feGaussianBlur stdDeviation="8.52858"/>
<feColorMatrix type="matrix" values="0 0 0 0 0.137255 0 0 0 0 0.313726 0 0 0 0 0.905882 0 0 0 0.14 0"/>
<feBlend mode="normal" in2="effect1_dropShadow_1211_3853" result="effect2_dropShadow_1211_3853"/>
<feBlend mode="normal" in="SourceGraphic" in2="effect2_dropShadow_1211_3853" result="shape"/>
</filter>
<filter id="filter2_dd_1211_3853" x="56.0053" y="143.103" width="53.6612" height="35.5626" filterUnits="userSpaceOnUse" color-interpolation-filters="sRGB">
<feFlood flood-opacity="0" result="BackgroundImageFix"/>
<feColorMatrix in="SourceAlpha" type="matrix" values="0 0 0 0 0 0 0 0 0 0 0 0 0 0 0 0 0 0 127 0" result="hardAlpha"/>
<feOffset dy="-5.01251"/>
<feGaussianBlur stdDeviation="3.08462"/>
<feColorMatrix type="matrix" values="0 0 0 0 0.137255 0 0 0 0 0.313726 0 0 0 0 0.905882 0 0 0 0.0975551 0"/>
<feBlend mode="normal" in2="BackgroundImageFix" result="effect1_dropShadow_1211_3853"/>
<feColorMatrix in="SourceAlpha" type="matrix" values="0 0 0 0 0 0 0 0 0 0 0 0 0 0 0 0 0 0 127 0" result="hardAlpha"/>
<feOffset dy="-13.8589"/>
<feGaussianBlur stdDeviation="8.52858"/>
<feColorMatrix type="matrix" values="0 0 0 0 0.137255 0 0 0 0 0.313726 0 0 0 0 0.905882 0 0 0 0.14 0"/>
<feBlend mode="normal" in2="effect1_dropShadow_1211_3853" result="effect2_dropShadow_1211_3853"/>
<feBlend mode="normal" in="SourceGraphic" in2="effect2_dropShadow_1211_3853" result="shape"/>
</filter>
<filter id="filter3_dd_1211_3853" x="190.75" y="125.1" width="37.0868" height="24.58" filterUnits="userSpaceOnUse" color-interpolation-filters="sRGB">
<feFlood flood-opacity="0" result="BackgroundImageFix"/>
<feColorMatrix in="SourceAlpha" type="matrix" values="0 0 0 0 0 0 0 0 0 0 0 0 0 0 0 0 0 0 127 0" result="hardAlpha"/>
<feOffset dy="-3.46453"/>
<feGaussianBlur stdDeviation="2.13202"/>
<feColorMatrix type="matrix" values="0 0 0 0 0.137255 0 0 0 0 0.313726 0 0 0 0 0.905882 0 0 0 0.0975551 0"/>
<feBlend mode="normal" in2="BackgroundImageFix" result="effect1_dropShadow_1211_3853"/>
<feColorMatrix in="SourceAlpha" type="matrix" values="0 0 0 0 0 0 0 0 0 0 0 0 0 0 0 0 0 0 127 0" result="hardAlpha"/>
<feOffset dy="-9.57897"/>
<feGaussianBlur stdDeviation="5.89475"/>
<feColorMatrix type="matrix" values="0 0 0 0 0.137255 0 0 0 0 0.313726 0 0 0 0 0.905882 0 0 0 0.14 0"/>
<feBlend mode="normal" in2="effect1_dropShadow_1211_3853" result="effect2_dropShadow_1211_3853"/>
<feBlend mode="normal" in="SourceGraphic" in2="effect2_dropShadow_1211_3853" result="shape"/>
</filter>
<filter id="filter4_dd_1211_3853" x="218.773" y="125.1" width="37.0868" height="24.58" filterUnits="userSpaceOnUse" color-interpolation-filters="sRGB">
<feFlood flood-opacity="0" result="BackgroundImageFix"/>
<feColorMatrix in="SourceAlpha" type="matrix" values="0 0 0 0 0 0 0 0 0 0 0 0 0 0 0 0 0 0 127 0" result="hardAlpha"/>
<feOffset dy="-3.46453"/>
<feGaussianBlur stdDeviation="2.13202"/>
<feColorMatrix type="matrix" values="0 0 0 0 0.137255 0 0 0 0 0.313726 0 0 0 0 0.905882 0 0 0 0.0975551 0"/>
<feBlend mode="normal" in2="BackgroundImageFix" result="effect1_dropShadow_1211_3853"/>
<feColorMatrix in="SourceAlpha" type="matrix" values="0 0 0 0 0 0 0 0 0 0 0 0 0 0 0 0 0 0 127 0" result="hardAlpha"/>
<feOffset dy="-9.57897"/>
<feGaussianBlur stdDeviation="5.89475"/>
<feColorMatrix type="matrix" values="0 0 0 0 0.137255 0 0 0 0 0.313726 0 0 0 0 0.905882 0 0 0 0.14 0"/>
<feBlend mode="normal" in2="effect1_dropShadow_1211_3853" result="effect2_dropShadow_1211_3853"/>
<feBlend mode="normal" in="SourceGraphic" in2="effect2_dropShadow_1211_3853" result="shape"/>
</filter>
<filter id="filter5_dd_1211_3853" x="65.9527" y="19.6589" width="145.095" height="100.81" filterUnits="userSpaceOnUse" color-interpolation-filters="sRGB">
<feFlood flood-opacity="0" result="BackgroundImageFix"/>
<feColorMatrix in="SourceAlpha" type="matrix" values="0 0 0 0 0 0 0 0 0 0 0 0 0 0 0 0 0 0 127 0" result="hardAlpha"/>
<feOffset dy="-3.32218"/>
<feGaussianBlur stdDeviation="2.04442"/>
<feColorMatrix type="matrix" values="0 0 0 0 0.137255 0 0 0 0 0.313726 0 0 0 0 0.905882 0 0 0 0.0975551 0"/>
<feBlend mode="normal" in2="BackgroundImageFix" result="effect1_dropShadow_1211_3853"/>
<feColorMatrix in="SourceAlpha" type="matrix" values="0 0 0 0 0 0 0 0 0 0 0 0 0 0 0 0 0 0 127 0" result="hardAlpha"/>
<feOffset dy="-9.1854"/>
<feGaussianBlur stdDeviation="5.65256"/>
<feColorMatrix type="matrix" values="0 0 0 0 0.137255 0 0 0 0 0.313726 0 0 0 0 0.905882 0 0 0 0.14 0"/>
<feBlend mode="normal" in2="effect1_dropShadow_1211_3853" result="effect2_dropShadow_1211_3853"/>
<feBlend mode="normal" in="SourceGraphic" in2="effect2_dropShadow_1211_3853" result="shape"/>
</filter>
<filter id="filter6_f_1211_3853" x="34.8571" y="-101.177" width="209.161" height="209.164" filterUnits="userSpaceOnUse" color-interpolation-filters="sRGB">
<feFlood flood-opacity="0" result="BackgroundImageFix"/>
<feBlend mode="normal" in="SourceGraphic" in2="BackgroundImageFix" result="shape"/>
<feGaussianBlur stdDeviation="39.5714" result="effect1_foregroundBlur_1211_3853"/>
</filter>
<filter id="filter7_f_1211_3853" x="34.8571" y="-101.177" width="209.161" height="209.164" filterUnits="userSpaceOnUse" color-interpolation-filters="sRGB">
<feFlood flood-opacity="0" result="BackgroundImageFix"/>
<feBlend mode="normal" in="SourceGraphic" in2="BackgroundImageFix" result="shape"/>
<feGaussianBlur stdDeviation="39.5714" result="effect1_foregroundBlur_1211_3853"/>
</filter>
<filter id="filter8_dd_1211_3853" x="69.1912" y="137.894" width="69.8363" height="46.2836" filterUnits="userSpaceOnUse" color-interpolation-filters="sRGB">
<feFlood flood-opacity="0" result="BackgroundImageFix"/>
<feColorMatrix in="SourceAlpha" type="matrix" values="0 0 0 0 0 0 0 0 0 0 0 0 0 0 0 0 0 0 127 0" result="hardAlpha"/>
<feOffset dy="-6.52363"/>
<feGaussianBlur stdDeviation="4.01454"/>
<feColorMatrix type="matrix" values="0 0 0 0 0.137255 0 0 0 0 0.313726 0 0 0 0 0.905882 0 0 0 0.0975551 0"/>
<feBlend mode="normal" in2="BackgroundImageFix" result="effect1_dropShadow_1211_3853"/>
<feColorMatrix in="SourceAlpha" type="matrix" values="0 0 0 0 0 0 0 0 0 0 0 0 0 0 0 0 0 0 127 0" result="hardAlpha"/>
<feOffset dy="-18.037"/>
<feGaussianBlur stdDeviation="11.0997"/>
<feColorMatrix type="matrix" values="0 0 0 0 0.137255 0 0 0 0 0.313726 0 0 0 0 0.905882 0 0 0 0.14 0"/>
<feBlend mode="normal" in2="effect1_dropShadow_1211_3853" result="effect2_dropShadow_1211_3853"/>
<feBlend mode="normal" in="SourceGraphic" in2="effect2_dropShadow_1211_3853" result="shape"/>
</filter>
<filter id="filter9_dd_1211_3853" x="121.949" y="137.894" width="69.8363" height="46.2836" filterUnits="userSpaceOnUse" color-interpolation-filters="sRGB">
<feFlood flood-opacity="0" result="BackgroundImageFix"/>
<feColorMatrix in="SourceAlpha" type="matrix" values="0 0 0 0 0 0 0 0 0 0 0 0 0 0 0 0 0 0 127 0" result="hardAlpha"/>
<feOffset dy="-6.52363"/>
<feGaussianBlur stdDeviation="4.01454"/>
<feColorMatrix type="matrix" values="0 0 0 0 0.137255 0 0 0 0 0.313726 0 0 0 0 0.905882 0 0 0 0.0975551 0"/>
<feBlend mode="normal" in2="BackgroundImageFix" result="effect1_dropShadow_1211_3853"/>
<feColorMatrix in="SourceAlpha" type="matrix" values="0 0 0 0 0 0 0 0 0 0 0 0 0 0 0 0 0 0 127 0" result="hardAlpha"/>
<feOffset dy="-18.037"/>
<feGaussianBlur stdDeviation="11.0997"/>
<feColorMatrix type="matrix" values="0 0 0 0 0.137255 0 0 0 0 0.313726 0 0 0 0 0.905882 0 0 0 0.14 0"/>
<feBlend mode="normal" in2="effect1_dropShadow_1211_3853" result="effect2_dropShadow_1211_3853"/>
<feBlend mode="normal" in="SourceGraphic" in2="effect2_dropShadow_1211_3853" result="shape"/>
</filter>
<radialGradient id="paint0_radial_1211_3853" cx="0" cy="0" r="1" gradientUnits="userSpaceOnUse" gradientTransform="translate(138.402 50.5) rotate(90) scale(248.136 263.752)">
<stop/>
<stop offset="0.630476" stop-color="#666666" stop-opacity="0"/>
</radialGradient>
<linearGradient id="paint1_linear_1211_3853" x1="72.4663" y1="139.811" x2="175.098" y2="146.928" gradientUnits="userSpaceOnUse">
<stop stop-color="#082071"/>
<stop offset="0.54711" stop-color="#0E3DD7"/>
<stop offset="1" stop-color="#082071"/>
</linearGradient>
<linearGradient id="paint2_linear_1211_3853" x1="277" y1="108.821" x2="0" y2="108.821" gradientUnits="userSpaceOnUse">
<stop stop-color="#090A13"/>
<stop offset="0.144085" stop-color="#090A13" stop-opacity="0.5"/>
<stop offset="0.46056" stop-color="#090A13" stop-opacity="0.15"/>
<stop offset="0.881828" stop-color="#090A13" stop-opacity="0.5"/>
<stop offset="1" stop-color="#090A13"/>
</linearGradient>
<clipPath id="clip0_1211_3853">
<rect width="277" height="217" rx="18.8435" fill="white"/>
</clipPath>
<clipPath id="clip1_1211_3853">
<path d="M77.2578 51.4555C77.2578 45.2113 82.3197 40.1494 88.5639 40.1494H188.435C194.679 40.1494 199.741 45.2113 199.741 51.4555V118.35H77.2578V51.4555Z" fill="white"/>
</clipPath>
</defs>
</svg>
