<svg width="277" height="217" viewBox="0 0 277 217" fill="none" xmlns="http://www.w3.org/2000/svg">
<g clip-path="url(#clip0_1211_275)">
<rect width="277" height="217" rx="18.8435" fill="#090A13"/>
<g filter="url(#filter0_f_1211_275)">
<ellipse cx="138.5" cy="-16.5" rx="84.5" ry="44.5" fill="#1F53FF"/>
</g>
<mask id="mask0_1211_275" style="mask-type:alpha" maskUnits="userSpaceOnUse" x="-611" y="-74" width="1498" height="346">
<path d="M886.499 -72.6677L-609.606 -72.6678M886.499 -48.1425L-609.606 -48.1426M886.499 -23.6155L-609.606 -23.6157M-609.695 270.969L-609.695 -72.7578M-585.168 270.969L-585.168 -72.7578M-560.645 270.969L-560.645 -72.7578M-536.118 270.969L-536.118 -72.7578M-511.591 270.969L-511.591 -72.7578M-487.064 270.969L-487.064 -72.7578M-462.537 270.969L-462.537 -72.7578M-438.01 270.969L-438.01 -72.7578M-413.487 270.969L-413.487 -72.7578M-388.96 270.969L-388.96 -72.7578M-364.433 270.969L-364.433 -72.7578M-339.906 270.969L-339.906 -72.7578M-315.379 270.969L-315.379 -72.7578M-290.852 270.969L-290.852 -72.7578M-266.325 270.969L-266.325 -72.7578M-241.802 270.969L-241.802 -72.7578M-217.275 270.969L-217.275 -72.7578M-192.748 270.969L-192.748 -72.7578M-168.224 270.969L-168.224 -72.7578M-143.697 270.969L-143.697 -72.7578M-119.167 270.969L-119.167 -72.7578M-94.6435 270.969L-94.6435 -72.7578M-70.1166 270.969L-70.1166 -72.7578M-45.5896 270.969L-45.5896 -72.7578M-21.0627 270.969L-21.0626 -72.7578M3.46074 270.969L3.4608 -72.7578M27.9877 270.969L27.9878 -72.7578M52.5147 270.969L52.5147 -72.7578M77.0416 270.969L77.0416 -72.7578M101.569 270.969L101.569 -72.7578M126.095 270.969L126.095 -72.7578M150.619 270.969L150.619 -72.7578M175.146 270.969L175.146 -72.7578M199.673 270.969L199.673 -72.7578M224.196 270.969L224.196 -72.7578M248.727 270.969L248.727 -72.7578M273.254 270.969L273.254 -72.7578M297.777 270.969L297.777 -72.7578M322.304 270.969L322.304 -72.7578M346.831 270.969V-72.7578M371.358 270.969L371.358 -72.7578M395.881 270.969V-72.7578M420.412 270.969L420.412 -72.7578M444.939 270.969L444.939 -72.7578M469.462 270.969L469.462 -72.7578M493.989 270.969L493.989 -72.7578M518.516 270.969V-72.7578M543.04 270.969V-72.7578M567.567 270.969V-72.7578M592.093 270.969L592.093 -72.7578M616.62 270.969V-72.7578M641.147 270.969V-72.7578M665.674 270.969V-72.7578M690.198 270.969L690.198 -72.7578M714.725 270.969V-72.7578M739.252 270.969V-72.7578M763.778 270.969V-72.7578M788.305 270.969V-72.7578M812.832 270.969L812.832 -72.7578M837.359 270.969V-72.7578M861.883 270.969L861.883 -72.7578M886.41 270.969V-72.7578M886.499 0.911409L-609.606 0.911269M886.499 25.6162L-609.606 25.6161M886.499 50.1414L-609.606 50.1413M886.499 74.6701L-609.606 74.67M886.499 99.1953L-609.606 99.1952M886.499 123.721L-609.606 123.72M886.499 148.249L-609.606 148.249M886.499 172.774L-609.606 172.774M886.499 197.479L-609.606 197.479M886.499 222.006L-609.606 222.006M886.499 246.533L-609.606 246.533M886.499 271.058L-609.606 271.058" stroke="url(#paint0_radial_1211_275)"/>
</mask>
<g mask="url(#mask0_1211_275)">
<path opacity="0.43" d="M886.499 -72.6677L-609.606 -72.6678M886.499 -48.1425L-609.606 -48.1426M886.499 -23.6155L-609.606 -23.6157M-609.695 270.969L-609.695 -72.7578M-585.168 270.969L-585.168 -72.7578M-560.645 270.969L-560.645 -72.7578M-536.118 270.969L-536.118 -72.7578M-511.591 270.969L-511.591 -72.7578M-487.064 270.969L-487.064 -72.7578M-462.537 270.969L-462.537 -72.7578M-438.01 270.969L-438.01 -72.7578M-413.487 270.969L-413.487 -72.7578M-388.96 270.969L-388.96 -72.7578M-364.433 270.969L-364.433 -72.7578M-339.906 270.969L-339.906 -72.7578M-315.379 270.969L-315.379 -72.7578M-290.852 270.969L-290.852 -72.7578M-266.325 270.969L-266.325 -72.7578M-241.802 270.969L-241.802 -72.7578M-217.275 270.969L-217.275 -72.7578M-192.748 270.969L-192.748 -72.7578M-168.224 270.969L-168.224 -72.7578M-143.697 270.969L-143.697 -72.7578M-119.167 270.969L-119.167 -72.7578M-94.6435 270.969L-94.6435 -72.7578M-70.1166 270.969L-70.1166 -72.7578M-45.5896 270.969L-45.5896 -72.7578M-21.0627 270.969L-21.0626 -72.7578M3.46074 270.969L3.4608 -72.7578M27.9877 270.969L27.9878 -72.7578M52.5147 270.969L52.5147 -72.7578M77.0416 270.969L77.0416 -72.7578M101.569 270.969L101.569 -72.7578M126.095 270.969L126.095 -72.7578M150.619 270.969L150.619 -72.7578M175.146 270.969L175.146 -72.7578M199.673 270.969L199.673 -72.7578M224.196 270.969L224.196 -72.7578M248.727 270.969L248.727 -72.7578M273.254 270.969L273.254 -72.7578M297.777 270.969L297.777 -72.7578M322.304 270.969L322.304 -72.7578M346.831 270.969V-72.7578M371.358 270.969L371.358 -72.7578M395.881 270.969V-72.7578M420.412 270.969L420.412 -72.7578M444.939 270.969L444.939 -72.7578M469.462 270.969L469.462 -72.7578M493.989 270.969L493.989 -72.7578M518.516 270.969V-72.7578M543.04 270.969V-72.7578M567.567 270.969V-72.7578M592.093 270.969L592.093 -72.7578M616.62 270.969V-72.7578M641.147 270.969V-72.7578M665.674 270.969V-72.7578M690.198 270.969L690.198 -72.7578M714.725 270.969V-72.7578M739.252 270.969V-72.7578M763.778 270.969V-72.7578M788.305 270.969V-72.7578M812.832 270.969L812.832 -72.7578M837.359 270.969V-72.7578M861.883 270.969L861.883 -72.7578M886.41 270.969V-72.7578M886.499 0.911409L-609.606 0.911269M886.499 25.6162L-609.606 25.6161M886.499 50.1414L-609.606 50.1413M886.499 74.6701L-609.606 74.67M886.499 99.1953L-609.606 99.1952M886.499 123.721L-609.606 123.72M886.499 148.249L-609.606 148.249M886.499 172.774L-609.606 172.774M886.499 197.479L-609.606 197.479M886.499 222.006L-609.606 222.006M886.499 246.533L-609.606 246.533M886.499 271.058L-609.606 271.058" stroke="#2525AF"/>
</g>
<g opacity="0.4" filter="url(#filter1_f_1211_275)">
<path d="M24.3281 85.64L25.6101 87.4774C25.9981 88.0334 26.769 88.1582 27.3126 87.7531L27.8651 87.3413C28.1475 87.1309 28.5079 87.055 28.8511 87.1337L29.5095 87.2847C29.9877 87.3944 30.3511 87.7839 30.4274 88.2686L34.0387 111.23C34.172 112.078 35.3799 112.113 35.5627 111.275V111.275C35.7467 110.431 36.964 110.474 37.0882 111.328L38.1661 118.744C38.2785 119.517 39.2622 119.779 39.7446 119.164V119.164C40.0328 118.797 40.5558 118.716 40.9422 118.977L41.524 119.372C42.0442 119.724 42.7482 119.616 43.1386 119.124L43.7722 118.324C44.1513 117.846 44.8285 117.728 45.3468 118.05L45.391 118.078C46.0931 118.514 47.0155 118.127 47.1964 117.32L48.4865 111.568C48.5696 111.198 48.8227 110.888 49.1693 110.734L49.8538 110.429C50.2036 110.273 50.4581 109.959 50.5387 109.585L52.1376 102.16C52.2814 101.492 52.953 101.079 53.6144 101.251L54.0811 101.373C54.4064 101.457 54.7523 101.402 55.0348 101.22L55.4093 100.978C55.8664 100.683 56.4645 100.733 56.8673 101.098L57.5822 101.747C58.1114 102.228 58.9405 102.142 59.3608 101.564L60.2049 100.403C60.4309 100.092 60.792 99.9076 61.1764 99.9076H61.9102C62.0733 99.9076 62.2347 99.8744 62.3845 99.81L63.083 99.5097C63.8163 99.1944 64.6474 99.6689 64.7486 100.461L67.7925 124.28C67.9578 125.574 69.7763 125.714 70.1376 124.461L71.8931 118.372C72.1409 117.512 73.2745 117.325 73.7862 118.058V118.058C73.985 118.343 74.3105 118.513 74.658 118.513H75.9807C76.3078 118.513 76.6208 118.646 76.8472 118.882L77.0852 119.13C77.758 119.832 78.9416 119.485 79.1299 118.532L82.2045 102.962C82.2452 102.756 82.3394 102.564 82.4776 102.405L84.4705 100.12C84.5924 99.9804 84.6803 99.8143 84.7273 99.6348L85.6241 96.2071C85.9066 95.1276 87.3801 94.9833 87.8666 95.9874L87.9418 96.1425C88.2142 96.7048 88.8965 96.9321 89.4518 96.6456V96.6456C89.9935 96.3661 90.6593 96.5751 90.9441 97.114L92.2376 99.561C92.3567 99.7863 92.5443 99.9678 92.7733 100.079L96.4029 101.848L97.3343 102.188C98.0061 102.433 98.7418 102.04 98.9122 101.346L99.9223 97.228C100.101 96.4989 101.058 96.3246 101.483 96.9439V96.9439C101.906 97.562 102.861 97.3899 103.042 96.6629L104.226 91.9138C104.369 91.338 105.101 91.1616 105.491 91.6088V91.6088C105.869 92.0424 106.577 91.8921 106.746 91.3422L108.067 87.0513C108.121 86.8738 108.216 86.7114 108.345 86.5768L110.324 84.4968C110.465 84.3483 110.566 84.166 110.617 83.9674L113.64 72.1803C113.926 71.0682 115.459 70.9521 115.909 72.0085L115.983 72.1827C116.264 72.8447 117.061 73.1122 117.685 72.7544L118.077 72.5295C118.35 72.3731 118.551 72.1158 118.636 71.8129L120.326 65.805C120.432 65.4309 120.711 65.1308 121.077 64.9997L121.222 64.9477C121.733 64.7649 122.302 64.9465 122.612 65.391L123.491 66.6507C123.969 67.3357 124.983 67.3357 125.461 66.6507L126.048 65.8101C126.297 65.4524 126.75 65.2989 127.166 65.4312V65.4312C127.743 65.615 128.349 65.2452 128.45 64.648L130.203 54.23C130.32 53.538 131.106 53.1908 131.696 53.5712V53.5712C131.917 53.714 132.187 53.7613 132.444 53.7024L133.395 53.4842C133.793 53.393 134.117 53.1062 134.256 52.7225L135.094 50.4074C135.476 49.3513 136.97 49.3513 137.352 50.4074L138.019 52.2486C138.212 52.7828 138.874 52.9684 139.317 52.6128V52.6128C139.807 52.2193 140.54 52.4937 140.651 53.1124L142.324 62.413C142.37 62.6716 142.5 62.9079 142.694 63.0855L144.042 64.322C144.263 64.5252 144.553 64.638 144.854 64.638H145.588C146.162 64.638 146.656 64.2316 146.767 63.6683L147.91 57.842C148.072 57.0174 149.164 56.8246 149.599 57.5439V57.5439C149.892 58.0306 150.553 58.1364 150.984 57.7657L152.248 56.6789C152.444 56.5106 152.58 56.2838 152.637 56.032L154.061 49.7028C154.114 49.4683 154.236 49.2551 154.411 49.0907L155.511 48.0592C155.973 47.6258 156.692 47.6258 157.154 48.0592L157.591 48.4692C158.096 48.9428 158.896 48.8926 159.337 48.3595L160.581 46.8585C161.245 46.0571 162.545 46.4221 162.694 47.4519L163.26 51.3438C163.455 52.6861 165.378 52.7261 165.629 51.393L166.153 48.6038C166.309 47.7734 167.271 47.3816 167.963 47.8665V47.8665C168.168 48.01 168.321 48.2156 168.4 48.4529L171.901 59.0162C172.003 59.3263 172.228 59.5812 172.523 59.722L173.995 60.4255C174.287 60.5646 174.51 60.8151 174.614 61.1204L175.868 64.7856C176.143 65.5896 177.143 65.8615 177.787 65.3075L177.942 65.1745C178.248 64.9108 178.667 64.8192 179.055 64.9306L180.075 65.2227C180.302 65.288 180.544 65.2844 180.77 65.2126L181.793 64.8868C182.066 64.7999 182.298 64.6182 182.449 64.3746L183.891 62.0448C184.191 61.5608 184.789 61.3536 185.324 61.5487L185.968 61.7838C186.359 61.9261 186.795 61.8568 187.121 61.6005L189.742 59.5444C190.127 59.2425 190.656 59.2042 191.081 59.4474L192.108 60.0361C192.28 60.1348 192.425 60.2746 192.53 60.443L193.003 61.2035C193.542 62.0681 194.845 61.9115 195.163 60.9439L196.08 58.1584C196.242 57.6658 196.702 57.3329 197.221 57.3329H197.299C197.702 57.3329 198.078 57.1308 198.301 56.7947L198.869 55.9353C199.404 55.1272 200.626 55.2525 200.986 56.1522L202.081 58.8912C202.233 59.2715 202.568 59.5481 202.971 59.625L203.891 59.8009C204.04 59.8294 204.193 59.8294 204.342 59.8009L205.294 59.6191C205.679 59.5455 206.076 59.6648 206.357 59.9387L206.99 60.5553C207.478 61.0308 208.269 60.9831 208.696 60.4524V60.4524C209.318 59.68 210.56 59.9983 210.734 60.9745L212.08 68.5349C212.192 69.1652 212.779 69.5966 213.414 69.5157L213.627 69.4886C213.914 69.452 214.178 69.3131 214.371 69.0974L217.78 65.281C218.072 64.9547 218.518 64.8128 218.944 64.9106L219.442 65.0248C219.926 65.1356 220.291 65.532 220.362 66.0226L221.809 75.9781C221.923 76.7623 222.752 77.223 223.479 76.9058L225.351 76.0881C225.859 75.8661 226.453 76.021 226.788 76.4629L227.621 77.5608C227.963 78.0122 228.575 78.1629 229.088 77.9223L229.867 77.5567C230.202 77.3995 230.446 77.0967 230.528 76.7359L231.56 72.2C231.796 71.1652 233.159 70.922 233.738 71.8116L236.494 76.0492C236.545 76.127 236.604 76.1986 236.671 76.2627L237.685 77.231C238.083 77.6115 238.689 77.6723 239.155 77.3785L239.918 76.8972C240.196 76.722 240.39 76.4405 240.455 76.1184L241.542 70.7149C241.719 69.8363 242.932 69.7301 243.259 70.5646V70.5646C243.583 71.3908 244.781 71.2974 244.972 70.431L246.093 65.3624C246.116 65.2604 246.152 65.1617 246.2 65.0689L247.916 61.7584C248.156 61.2973 248.664 61.0422 249.177 61.1262L252.498 61.6703" stroke="#1F53FF" stroke-width="7.20538" stroke-linejoin="round"/>
</g>
<path d="M24.3281 85.64L25.6101 87.4774C25.9981 88.0334 26.769 88.1582 27.3126 87.7531L27.8651 87.3413C28.1475 87.1309 28.5079 87.055 28.8511 87.1337L29.5095 87.2847C29.9877 87.3944 30.3511 87.7839 30.4274 88.2686L34.0387 111.23C34.172 112.078 35.3799 112.113 35.5627 111.275V111.275C35.7467 110.431 36.964 110.474 37.0882 111.328L38.1661 118.744C38.2785 119.517 39.2622 119.779 39.7446 119.164V119.164C40.0328 118.797 40.5558 118.716 40.9422 118.977L41.524 119.372C42.0442 119.724 42.7482 119.616 43.1386 119.124L43.7722 118.324C44.1513 117.846 44.8285 117.728 45.3468 118.05L45.391 118.078C46.0931 118.514 47.0155 118.127 47.1964 117.32L48.4865 111.568C48.5696 111.198 48.8227 110.888 49.1693 110.734L49.8538 110.429C50.2036 110.273 50.4581 109.959 50.5387 109.585L52.1376 102.16C52.2814 101.492 52.953 101.079 53.6144 101.251L54.0811 101.373C54.4064 101.457 54.7523 101.402 55.0348 101.22L55.4093 100.978C55.8664 100.683 56.4645 100.733 56.8673 101.098L57.5822 101.747C58.1114 102.228 58.9405 102.142 59.3608 101.564L60.2049 100.403C60.4309 100.092 60.792 99.9076 61.1764 99.9076H61.9102C62.0733 99.9076 62.2347 99.8744 62.3845 99.81L63.083 99.5097C63.8163 99.1944 64.6474 99.6689 64.7486 100.461L67.7925 124.28C67.9578 125.574 69.7763 125.714 70.1376 124.461L71.8931 118.372C72.1409 117.512 73.2745 117.325 73.7862 118.058V118.058C73.985 118.343 74.3105 118.513 74.658 118.513H75.9807C76.3078 118.513 76.6208 118.646 76.8472 118.882L77.0852 119.13C77.758 119.832 78.9416 119.485 79.1299 118.532L82.2045 102.962C82.2452 102.756 82.3394 102.564 82.4776 102.405L84.4705 100.12C84.5924 99.9804 84.6803 99.8143 84.7273 99.6348L85.6241 96.2071C85.9066 95.1276 87.3801 94.9833 87.8666 95.9874L87.9418 96.1425C88.2142 96.7048 88.8965 96.9321 89.4518 96.6456V96.6456C89.9935 96.3661 90.6593 96.5751 90.9441 97.114L92.2376 99.561C92.3567 99.7863 92.5443 99.9678 92.7733 100.079L96.4029 101.848L97.3343 102.188C98.0061 102.433 98.7418 102.04 98.9122 101.346L99.9223 97.228C100.101 96.4989 101.058 96.3246 101.483 96.9439V96.9439C101.906 97.562 102.861 97.3899 103.042 96.6629L104.226 91.9138C104.369 91.338 105.101 91.1616 105.491 91.6088V91.6088C105.869 92.0424 106.577 91.8921 106.746 91.3422L108.067 87.0513C108.121 86.8738 108.216 86.7114 108.345 86.5768L110.324 84.4968C110.465 84.3483 110.566 84.166 110.617 83.9674L113.64 72.1803C113.926 71.0682 115.459 70.9521 115.909 72.0085L115.983 72.1827C116.264 72.8447 117.061 73.1122 117.685 72.7544L118.077 72.5295C118.35 72.3731 118.551 72.1158 118.636 71.8129L120.326 65.805C120.432 65.4309 120.711 65.1308 121.077 64.9997L121.222 64.9477C121.733 64.7649 122.302 64.9465 122.612 65.391L123.491 66.6507C123.969 67.3357 124.983 67.3357 125.461 66.6507L126.048 65.8101C126.297 65.4524 126.75 65.2989 127.166 65.4312V65.4312C127.743 65.615 128.349 65.2452 128.45 64.648L130.203 54.23C130.32 53.538 131.106 53.1908 131.696 53.5712V53.5712C131.917 53.714 132.187 53.7613 132.444 53.7024L133.395 53.4842C133.793 53.393 134.117 53.1062 134.256 52.7225L135.094 50.4074C135.476 49.3513 136.97 49.3513 137.352 50.4074L138.019 52.2486C138.212 52.7828 138.874 52.9684 139.317 52.6128V52.6128C139.807 52.2193 140.54 52.4937 140.651 53.1124L142.324 62.413C142.37 62.6716 142.5 62.9079 142.694 63.0855L144.042 64.322C144.263 64.5252 144.553 64.638 144.854 64.638H145.588C146.162 64.638 146.656 64.2316 146.767 63.6683L147.91 57.842C148.072 57.0174 149.164 56.8246 149.599 57.5439V57.5439C149.892 58.0306 150.553 58.1364 150.984 57.7657L152.248 56.6789C152.444 56.5106 152.58 56.2838 152.637 56.032L154.061 49.7028C154.114 49.4683 154.236 49.2551 154.411 49.0907L155.511 48.0592C155.973 47.6258 156.692 47.6258 157.154 48.0592L157.591 48.4692C158.096 48.9428 158.896 48.8926 159.337 48.3595L160.581 46.8585C161.245 46.0571 162.545 46.4221 162.694 47.4519L163.26 51.3438C163.455 52.6861 165.378 52.7261 165.629 51.393L166.153 48.6038C166.309 47.7734 167.271 47.3816 167.963 47.8665V47.8665C168.168 48.01 168.321 48.2156 168.4 48.4529L171.901 59.0162C172.003 59.3263 172.228 59.5812 172.523 59.722L173.995 60.4255C174.287 60.5646 174.51 60.8151 174.614 61.1204L175.868 64.7856C176.143 65.5896 177.143 65.8615 177.787 65.3075L177.942 65.1745C178.248 64.9108 178.667 64.8192 179.055 64.9306L180.075 65.2227C180.302 65.288 180.544 65.2844 180.77 65.2126L181.793 64.8868C182.066 64.7999 182.298 64.6182 182.449 64.3746L183.891 62.0448C184.191 61.5608 184.789 61.3536 185.324 61.5487L185.968 61.7838C186.359 61.9261 186.795 61.8568 187.121 61.6005L189.742 59.5444C190.127 59.2425 190.656 59.2042 191.081 59.4474L192.108 60.0361C192.28 60.1348 192.425 60.2746 192.53 60.443L193.003 61.2035C193.542 62.0681 194.845 61.9115 195.163 60.9439L196.08 58.1584C196.242 57.6658 196.702 57.3329 197.221 57.3329H197.299C197.702 57.3329 198.078 57.1308 198.301 56.7947L198.869 55.9353C199.404 55.1272 200.626 55.2525 200.986 56.1522L202.081 58.8912C202.233 59.2715 202.568 59.5481 202.971 59.625L203.891 59.8009C204.04 59.8294 204.193 59.8294 204.342 59.8009L205.294 59.6191C205.679 59.5455 206.076 59.6648 206.357 59.9387L206.99 60.5553C207.478 61.0308 208.269 60.9831 208.696 60.4524V60.4524C209.318 59.68 210.56 59.9983 210.734 60.9745L212.08 68.5349C212.192 69.1652 212.779 69.5966 213.414 69.5157L213.627 69.4886C213.914 69.452 214.178 69.3131 214.371 69.0974L217.78 65.281C218.072 64.9547 218.518 64.8128 218.944 64.9106L219.442 65.0248C219.926 65.1356 220.291 65.532 220.362 66.0226L221.809 75.9781C221.923 76.7623 222.752 77.223 223.479 76.9058L225.351 76.0881C225.859 75.8661 226.453 76.021 226.788 76.4629L227.621 77.5608C227.963 78.0122 228.575 78.1629 229.088 77.9223L229.867 77.5567C230.202 77.3995 230.446 77.0967 230.528 76.7359L231.56 72.2C231.796 71.1652 233.159 70.922 233.738 71.8116L236.494 76.0492C236.545 76.127 236.604 76.1986 236.671 76.2627L237.685 77.231C238.083 77.6115 238.689 77.6723 239.155 77.3785L239.918 76.8972C240.196 76.722 240.39 76.4405 240.455 76.1184L241.542 70.7149C241.719 69.8363 242.932 69.7301 243.259 70.5646V70.5646C243.583 71.3908 244.781 71.2974 244.972 70.431L246.093 65.3624C246.116 65.2604 246.152 65.1617 246.2 65.0689L247.916 61.7584C248.156 61.2973 248.664 61.0422 249.177 61.1262L252.498 61.6703" stroke="#1F53FF" stroke-width="1.2009" stroke-linejoin="round"/>
<path d="M24.3281 161.266H252.498" stroke="#090A13" stroke-width="0.600448"/>
<g filter="url(#filter2_d_1211_275)">
<line x1="212.3" y1="52.7031" x2="212.3" y2="153.459" stroke="#262735" stroke-width="0.600448"/>
<path d="M162.172 32.7573C162.172 31.4308 163.247 30.3555 164.574 30.3555H210.208C211.534 30.3555 212.61 31.4308 212.61 32.7573V53.7729H164.574C163.247 53.7729 162.172 52.6976 162.172 51.3712V32.7573Z" fill="#090A13"/>
<g filter="url(#filter3_dd_1211_275)">
<rect x="166.766" y="36.7422" width="33.9184" height="2.51247" rx="1.25624" fill="#2A2D3F"/>
</g>
<rect x="166.766" y="41.7695" width="22.8228" height="6.84684" rx="3.42342" fill="#1F53FF"/>
<circle cx="212.319" cy="69.2332" r="2.37929" fill="#1F53FF" stroke="url(#paint1_radial_1211_275)" stroke-width="0.942177"/>
<rect x="198.461" y="153.457" width="28.8215" height="15.6117" rx="7.80583" fill="#1F53FF"/>
<path d="M217.375 163.884V158.903C217.375 158.648 217.672 158.509 217.867 158.672L220.714 161.044C220.853 161.16 220.858 161.373 220.725 161.496L217.878 164.105C217.686 164.282 217.375 164.145 217.375 163.884Z" fill="#090A13"/>
<path d="M208.969 163.884V158.903C208.969 158.648 208.672 158.509 208.476 158.672L205.63 161.044C205.49 161.16 205.485 161.373 205.619 161.496L208.466 164.105C208.658 164.282 208.969 164.145 208.969 163.884Z" fill="#090A13"/>
</g>
<rect width="277" height="217.643" rx="18.8435" fill="url(#paint2_linear_1211_275)" fill-opacity="0.8"/>
</g>
<defs>
<filter id="filter0_f_1211_275" x="-130" y="-245" width="537" height="457" filterUnits="userSpaceOnUse" color-interpolation-filters="sRGB">
<feFlood flood-opacity="0" result="BackgroundImageFix"/>
<feBlend mode="normal" in="SourceGraphic" in2="BackgroundImageFix" result="shape"/>
<feGaussianBlur stdDeviation="92" result="effect1_foregroundBlur_1211_275"/>
</filter>
<filter id="filter1_f_1211_275" x="-5.04472" y="16.3967" width="284.543" height="138.956" filterUnits="userSpaceOnUse" color-interpolation-filters="sRGB">
<feFlood flood-opacity="0" result="BackgroundImageFix"/>
<feBlend mode="normal" in="SourceGraphic" in2="BackgroundImageFix" result="shape"/>
<feGaussianBlur stdDeviation="13.2099" result="effect1_foregroundBlur_1211_275"/>
</filter>
<filter id="filter2_d_1211_275" x="160.971" y="29.1546" width="69.913" height="143.516" filterUnits="userSpaceOnUse" color-interpolation-filters="sRGB">
<feFlood flood-opacity="0" result="BackgroundImageFix"/>
<feColorMatrix in="SourceAlpha" type="matrix" values="0 0 0 0 0 0 0 0 0 0 0 0 0 0 0 0 0 0 127 0" result="hardAlpha"/>
<feOffset dx="1.2009" dy="1.2009"/>
<feGaussianBlur stdDeviation="1.2009"/>
<feComposite in2="hardAlpha" operator="out"/>
<feColorMatrix type="matrix" values="0 0 0 0 0 0 0 0 0 0 0 0 0 0 0 0 0 0 0.25 0"/>
<feBlend mode="normal" in2="BackgroundImageFix" result="effect1_dropShadow_1211_275"/>
<feBlend mode="normal" in="SourceGraphic" in2="effect1_dropShadow_1211_275" result="shape"/>
</filter>
<filter id="filter3_dd_1211_275" x="137.166" y="-16.9063" width="93.1203" height="61.7111" filterUnits="userSpaceOnUse" color-interpolation-filters="sRGB">
<feFlood flood-opacity="0" result="BackgroundImageFix"/>
<feColorMatrix in="SourceAlpha" type="matrix" values="0 0 0 0 0 0 0 0 0 0 0 0 0 0 0 0 0 0 127 0" result="hardAlpha"/>
<feOffset dy="-8.69818"/>
<feGaussianBlur stdDeviation="5.35272"/>
<feColorMatrix type="matrix" values="0 0 0 0 0.137255 0 0 0 0 0.313726 0 0 0 0 0.905882 0 0 0 0.0975551 0"/>
<feBlend mode="normal" in2="BackgroundImageFix" result="effect1_dropShadow_1211_275"/>
<feColorMatrix in="SourceAlpha" type="matrix" values="0 0 0 0 0 0 0 0 0 0 0 0 0 0 0 0 0 0 127 0" result="hardAlpha"/>
<feOffset dy="-24.0493"/>
<feGaussianBlur stdDeviation="14.7996"/>
<feColorMatrix type="matrix" values="0 0 0 0 0.137255 0 0 0 0 0.313726 0 0 0 0 0.905882 0 0 0 0.14 0"/>
<feBlend mode="normal" in2="effect1_dropShadow_1211_275" result="effect2_dropShadow_1211_275"/>
<feBlend mode="normal" in="SourceGraphic" in2="effect2_dropShadow_1211_275" result="shape"/>
</filter>
<radialGradient id="paint0_radial_1211_275" cx="0" cy="0" r="1" gradientUnits="userSpaceOnUse" gradientTransform="translate(138.402 50.501) rotate(90) scale(248.136 263.752)">
<stop/>
<stop offset="0.630476" stop-color="#666666" stop-opacity="0"/>
</radialGradient>
<radialGradient id="paint1_radial_1211_275" cx="0" cy="0" r="1" gradientUnits="userSpaceOnUse" gradientTransform="translate(212.319 69.2332) rotate(90) scale(2.85038 4.89885)">
<stop stop-color="#082071"/>
<stop offset="1" stop-color="#0E3DD7"/>
</radialGradient>
<linearGradient id="paint2_linear_1211_275" x1="385.821" y1="108.821" x2="-55.1173" y2="108.821" gradientUnits="userSpaceOnUse">
<stop stop-color="#090A13"/>
<stop offset="0.104039" stop-color="#090A13" stop-opacity="0.5"/>
<stop offset="0.36583" stop-color="#090A13" stop-opacity="0.15"/>
<stop offset="0.838876" stop-color="#090A13" stop-opacity="0.5"/>
<stop offset="1" stop-color="#090A13"/>
</linearGradient>
<clipPath id="clip0_1211_275">
<rect width="277" height="217" rx="18.8435" fill="white"/>
</clipPath>
</defs>
</svg>
