<svg width="277" height="217" viewBox="0 0 277 217" fill="none" xmlns="http://www.w3.org/2000/svg">
<g clip-path="url(#clip0_1211_4584)">
<rect width="277" height="217" rx="18.8435" fill="#090A13"/>
<g filter="url(#filter0_f_1211_4584)">
<ellipse cx="138.5" cy="-16.5" rx="84.5" ry="44.5" fill="#1F53FF"/>
</g>
<mask id="mask0_1211_4584" style="mask-type:alpha" maskUnits="userSpaceOnUse" x="-611" y="-74" width="1498" height="346">
<path d="M886.499 -72.6687L-609.606 -72.6688M886.499 -48.1434L-609.606 -48.1436M886.499 -23.6165L-609.606 -23.6166M-609.695 270.968L-609.695 -72.7588M-585.168 270.968L-585.168 -72.7588M-560.645 270.968L-560.645 -72.7588M-536.118 270.968L-536.118 -72.7588M-511.591 270.968L-511.591 -72.7588M-487.064 270.968L-487.064 -72.7588M-462.537 270.968L-462.537 -72.7588M-438.01 270.968L-438.01 -72.7588M-413.487 270.968L-413.487 -72.7588M-388.96 270.968L-388.96 -72.7588M-364.433 270.968L-364.433 -72.7588M-339.906 270.968L-339.906 -72.7588M-315.379 270.968L-315.379 -72.7588M-290.852 270.968L-290.852 -72.7588M-266.325 270.968L-266.325 -72.7588M-241.802 270.968L-241.802 -72.7588M-217.275 270.968L-217.275 -72.7588M-192.748 270.968L-192.748 -72.7588M-168.224 270.968L-168.224 -72.7588M-143.697 270.968L-143.697 -72.7588M-119.167 270.968L-119.167 -72.7588M-94.6435 270.968L-94.6435 -72.7588M-70.1166 270.968L-70.1166 -72.7588M-45.5896 270.968L-45.5896 -72.7588M-21.0627 270.968L-21.0626 -72.7588M3.46074 270.968L3.4608 -72.7588M27.9877 270.968L27.9878 -72.7588M52.5147 270.968L52.5147 -72.7588M77.0416 270.968L77.0416 -72.7588M101.569 270.968L101.569 -72.7588M126.095 270.968L126.095 -72.7588M150.619 270.968L150.619 -72.7588M175.146 270.968L175.146 -72.7588M199.673 270.968L199.673 -72.7588M224.196 270.968L224.196 -72.7588M248.727 270.968L248.727 -72.7588M273.254 270.968L273.254 -72.7588M297.777 270.968L297.777 -72.7588M322.304 270.968L322.304 -72.7588M346.831 270.968V-72.7588M371.358 270.968L371.358 -72.7588M395.881 270.968V-72.7588M420.412 270.968L420.412 -72.7588M444.939 270.968L444.939 -72.7588M469.462 270.968L469.462 -72.7588M493.989 270.968L493.989 -72.7588M518.516 270.968V-72.7588M543.04 270.968V-72.7588M567.567 270.968V-72.7588M592.093 270.968L592.093 -72.7588M616.62 270.968V-72.7588M641.147 270.968V-72.7588M665.674 270.968V-72.7588M690.198 270.968L690.198 -72.7588M714.725 270.968V-72.7588M739.252 270.968V-72.7588M763.778 270.968V-72.7588M788.305 270.968V-72.7588M812.832 270.968L812.832 -72.7588M837.359 270.968V-72.7588M861.883 270.968L861.883 -72.7588M886.41 270.968V-72.7588M886.499 0.910433L-609.606 0.910292M886.499 25.6153L-609.606 25.6151M886.499 50.1405L-609.606 50.1403M886.499 74.6691L-609.606 74.669M886.499 99.1943L-609.606 99.1942M886.499 123.72L-609.606 123.719M886.499 148.248L-609.606 148.248M886.499 172.773L-609.606 172.773M886.499 197.478L-609.606 197.478M886.499 222.005L-609.606 222.005M886.499 246.532L-609.606 246.532M886.499 271.057L-609.606 271.057" stroke="url(#paint0_radial_1211_4584)"/>
</mask>
<g mask="url(#mask0_1211_4584)">
<path opacity="0.43" d="M886.499 -72.6687L-609.606 -72.6688M886.499 -48.1434L-609.606 -48.1436M886.499 -23.6165L-609.606 -23.6166M-609.695 270.968L-609.695 -72.7588M-585.168 270.968L-585.168 -72.7588M-560.645 270.968L-560.645 -72.7588M-536.118 270.968L-536.118 -72.7588M-511.591 270.968L-511.591 -72.7588M-487.064 270.968L-487.064 -72.7588M-462.537 270.968L-462.537 -72.7588M-438.01 270.968L-438.01 -72.7588M-413.487 270.968L-413.487 -72.7588M-388.96 270.968L-388.96 -72.7588M-364.433 270.968L-364.433 -72.7588M-339.906 270.968L-339.906 -72.7588M-315.379 270.968L-315.379 -72.7588M-290.852 270.968L-290.852 -72.7588M-266.325 270.968L-266.325 -72.7588M-241.802 270.968L-241.802 -72.7588M-217.275 270.968L-217.275 -72.7588M-192.748 270.968L-192.748 -72.7588M-168.224 270.968L-168.224 -72.7588M-143.697 270.968L-143.697 -72.7588M-119.167 270.968L-119.167 -72.7588M-94.6435 270.968L-94.6435 -72.7588M-70.1166 270.968L-70.1166 -72.7588M-45.5896 270.968L-45.5896 -72.7588M-21.0627 270.968L-21.0626 -72.7588M3.46074 270.968L3.4608 -72.7588M27.9877 270.968L27.9878 -72.7588M52.5147 270.968L52.5147 -72.7588M77.0416 270.968L77.0416 -72.7588M101.569 270.968L101.569 -72.7588M126.095 270.968L126.095 -72.7588M150.619 270.968L150.619 -72.7588M175.146 270.968L175.146 -72.7588M199.673 270.968L199.673 -72.7588M224.196 270.968L224.196 -72.7588M248.727 270.968L248.727 -72.7588M273.254 270.968L273.254 -72.7588M297.777 270.968L297.777 -72.7588M322.304 270.968L322.304 -72.7588M346.831 270.968V-72.7588M371.358 270.968L371.358 -72.7588M395.881 270.968V-72.7588M420.412 270.968L420.412 -72.7588M444.939 270.968L444.939 -72.7588M469.462 270.968L469.462 -72.7588M493.989 270.968L493.989 -72.7588M518.516 270.968V-72.7588M543.04 270.968V-72.7588M567.567 270.968V-72.7588M592.093 270.968L592.093 -72.7588M616.62 270.968V-72.7588M641.147 270.968V-72.7588M665.674 270.968V-72.7588M690.198 270.968L690.198 -72.7588M714.725 270.968V-72.7588M739.252 270.968V-72.7588M763.778 270.968V-72.7588M788.305 270.968V-72.7588M812.832 270.968L812.832 -72.7588M837.359 270.968V-72.7588M861.883 270.968L861.883 -72.7588M886.41 270.968V-72.7588M886.499 0.910433L-609.606 0.910292M886.499 25.6153L-609.606 25.6151M886.499 50.1405L-609.606 50.1403M886.499 74.6691L-609.606 74.669M886.499 99.1943L-609.606 99.1942M886.499 123.72L-609.606 123.719M886.499 148.248L-609.606 148.248M886.499 172.773L-609.606 172.773M886.499 197.478L-609.606 197.478M886.499 222.005L-609.606 222.005M886.499 246.532L-609.606 246.532M886.499 271.057L-609.606 271.057" stroke="#2525AF"/>
</g>
<g filter="url(#filter1_dddd_1211_4584)">
<rect x="83.8594" y="53.7041" width="108.085" height="108.085" rx="54.0427" fill="#1F53FF"/>
</g>
<path d="M141.043 127.959H130.101L152.468 105.109H141.928L145.709 101.327H153.594L160.433 108.649L141.043 127.959Z" fill="#EDF3FF"/>
<path d="M138.71 115.488L144.422 109.454H126.239L147.962 87.6494H136.698L115.859 108.649L121.974 115.488H138.71Z" fill="#EDF3FF"/>
<rect x="18.8438" y="28.2646" width="84.7959" height="24.3954" rx="8.31333" fill="#131420"/>
<g filter="url(#filter2_dd_1211_4584)">
<path fill-rule="evenodd" clip-rule="evenodd" d="M28.0984 36.5781C27.5781 36.5781 27.1562 37 27.1562 37.5203C27.1562 38.0407 27.5781 38.4625 28.0984 38.4625H38.4624C38.9827 38.4625 39.4045 38.0407 39.4045 37.5203C39.4045 37 38.9827 36.5781 38.4624 36.5781H28.0984ZM42.1777 36.5781C41.6574 36.5781 41.2355 37 41.2355 37.5203C41.2355 38.0407 41.6574 38.4625 42.1777 38.4625H65.7321C66.2525 38.4625 66.6743 38.0407 66.6743 37.5203C66.6743 37 66.2525 36.5781 65.7321 36.5781H42.1777Z" fill="url(#paint1_linear_1211_4584)"/>
</g>
<g filter="url(#filter3_dd_1211_4584)">
<path fill-rule="evenodd" clip-rule="evenodd" d="M28.0984 42.4619C27.5781 42.4619 27.1562 42.8837 27.1562 43.4041C27.1562 43.9244 27.5781 44.3463 28.0984 44.3463H57.3059C57.8263 44.3463 58.2481 43.9244 58.2481 43.4041C58.2481 42.8837 57.8263 42.4619 57.3059 42.4619H28.0984ZM61.0213 42.4619C60.5009 42.4619 60.0791 42.8837 60.0791 43.4041C60.0791 43.9244 60.5009 44.3463 61.0213 44.3463H80.807C81.3273 44.3463 81.7491 43.9244 81.7491 43.4041C81.7491 42.8837 81.3273 42.4619 80.807 42.4619H61.0213Z" fill="url(#paint2_linear_1211_4584)"/>
</g>
<rect width="44.2823" height="13.5672" rx="4.3414" transform="matrix(1 0 0 -1 179.016 53.9717)" fill="#131420"/>
<g filter="url(#filter4_dd_1211_4584)">
<path fill-rule="evenodd" clip-rule="evenodd" d="M183.83 49.6299C183.57 49.6299 183.359 49.419 183.359 49.1588C183.359 48.8986 183.57 48.6877 183.83 48.6877H189.484C189.744 48.6877 189.955 48.8986 189.955 49.1588C189.955 49.419 189.744 49.6299 189.484 49.6299H183.83ZM191.381 49.6299C191.121 49.6299 190.91 49.419 190.91 49.1588C190.91 48.8986 191.121 48.6877 191.381 48.6877H203.629C203.889 48.6877 204.1 48.8986 204.1 49.1588C204.1 49.419 203.889 49.6299 203.629 49.6299H191.381Z" fill="url(#paint3_linear_1211_4584)"/>
</g>
<g filter="url(#filter5_dd_1211_4584)">
<path fill-rule="evenodd" clip-rule="evenodd" d="M183.83 45.6885C183.57 45.6885 183.359 45.4776 183.359 45.2174C183.359 44.9572 183.57 44.7463 183.83 44.7463H198.905C199.165 44.7463 199.376 44.9572 199.376 45.2174C199.376 45.4776 199.165 45.6885 198.905 45.6885H183.83ZM200.803 45.6885C200.542 45.6885 200.331 45.4776 200.331 45.2174C200.331 44.9572 200.542 44.7463 200.803 44.7463H211.166C211.427 44.7463 211.638 44.9572 211.638 45.2174C211.638 45.4776 211.427 45.6885 211.166 45.6885H200.803Z" fill="url(#paint4_linear_1211_4584)"/>
</g>
<rect x="18.8438" y="174.695" width="64.068" height="19.4717" rx="6.28118" fill="#191B32"/>
<g filter="url(#filter6_dd_1211_4584)">
<rect x="25.125" y="181.047" width="9.42177" height="1.88435" rx="0.942177" fill="#28304E"/>
</g>
<g filter="url(#filter7_dd_1211_4584)">
<rect x="35.9297" y="181.047" width="19.4717" height="1.88435" rx="0.942177" fill="#28304E"/>
</g>
<g filter="url(#filter8_dd_1211_4584)">
<rect x="25.125" y="185.931" width="23.8685" height="1.88435" rx="0.942177" fill="#28304E"/>
</g>
<g filter="url(#filter9_dd_1211_4584)">
<rect x="50.375" y="185.939" width="16.8029" height="1.86699" rx="0.933495" fill="#28304E"/>
</g>
<rect x="45.2266" y="154.518" width="33.9184" height="10.3085" rx="3.32533" fill="#191B32"/>
<rect x="48.5547" y="157.174" width="4.988" height="0.997599" rx="0.498799" fill="#28304E"/>
<rect x="54.2734" y="157.174" width="10.3085" height="0.997599" rx="0.498799" fill="#28304E"/>
<rect x="48.5547" y="161.172" width="12.6363" height="0.997599" rx="0.498799" fill="#28304E"/>
<rect x="61.9219" y="161.177" width="8.89566" height="0.988406" rx="0.494203" fill="#28304E"/>
<rect width="84.7959" height="25.7713" rx="8.31333" transform="matrix(-1 0 0 1 258.156 164.881)" fill="#131420"/>
<g filter="url(#filter10_dd_1211_4584)">
<path fill-rule="evenodd" clip-rule="evenodd" d="M248.902 173.382C249.422 173.382 249.844 173.804 249.844 174.324C249.844 174.844 249.422 175.266 248.902 175.266H238.538C238.017 175.266 237.595 174.844 237.595 174.324C237.595 173.804 238.017 173.382 238.538 173.382H248.902ZM234.822 173.382C235.343 173.382 235.764 173.804 235.764 174.324C235.764 174.844 235.343 175.266 234.822 175.266H185.829C185.309 175.266 184.887 174.844 184.887 174.324C184.887 173.804 185.309 173.382 185.829 173.382H234.822Z" fill="url(#paint5_linear_1211_4584)"/>
</g>
<path fill-rule="evenodd" clip-rule="evenodd" d="M249.844 181.209C249.844 180.688 249.422 180.267 248.902 180.267H219.694C219.174 180.267 218.752 180.688 218.752 181.209C218.752 181.729 219.174 182.151 219.694 182.151H248.902C249.422 182.151 249.844 181.729 249.844 181.209ZM216.921 181.209C216.921 180.688 216.499 180.267 215.979 180.267H206.557C206.037 180.267 205.615 180.688 205.615 181.209C205.615 181.729 206.037 182.151 206.557 182.151H215.979C216.499 182.151 216.921 181.729 216.921 181.209ZM202.843 180.267C203.364 180.267 203.786 180.688 203.786 181.209C203.786 181.729 203.364 182.151 202.843 182.151H185.884C185.364 182.151 184.942 181.729 184.942 181.209C184.942 180.688 185.364 180.267 185.884 180.267H202.843Z" fill="url(#paint6_linear_1211_4584)"/>
<rect width="277" height="217.643" rx="18.8435" fill="url(#paint7_linear_1211_4584)" fill-opacity="0.8"/>
</g>
<defs>
<filter id="filter0_f_1211_4584" x="-130" y="-245" width="537" height="457" filterUnits="userSpaceOnUse" color-interpolation-filters="sRGB">
<feFlood flood-opacity="0" result="BackgroundImageFix"/>
<feBlend mode="normal" in="SourceGraphic" in2="BackgroundImageFix" result="shape"/>
<feGaussianBlur stdDeviation="92" result="effect1_foregroundBlur_1211_4584"/>
</filter>
<filter id="filter1_dddd_1211_4584" x="18.603" y="-64.5731" width="238.599" height="238.598" filterUnits="userSpaceOnUse" color-interpolation-filters="sRGB">
<feFlood flood-opacity="0" result="BackgroundImageFix"/>
<feColorMatrix in="SourceAlpha" type="matrix" values="0 0 0 0 0 0 0 0 0 0 0 0 0 0 0 0 0 0 127 0" result="hardAlpha"/>
<feOffset dy="-2.40121"/>
<feGaussianBlur stdDeviation="1.47767"/>
<feColorMatrix type="matrix" values="0 0 0 0 0.137255 0 0 0 0 0.313726 0 0 0 0 0.905882 0 0 0 0.0975551 0"/>
<feBlend mode="normal" in2="BackgroundImageFix" result="effect1_dropShadow_1211_4584"/>
<feColorMatrix in="SourceAlpha" type="matrix" values="0 0 0 0 0 0 0 0 0 0 0 0 0 0 0 0 0 0 127 0" result="hardAlpha"/>
<feOffset dy="-6.63903"/>
<feGaussianBlur stdDeviation="4.08556"/>
<feColorMatrix type="matrix" values="0 0 0 0 0.137255 0 0 0 0 0.313726 0 0 0 0 0.905882 0 0 0 0.14 0"/>
<feBlend mode="normal" in2="effect1_dropShadow_1211_4584" result="effect2_dropShadow_1211_4584"/>
<feColorMatrix in="SourceAlpha" type="matrix" values="0 0 0 0 0 0 0 0 0 0 0 0 0 0 0 0 0 0 127 0" result="hardAlpha"/>
<feOffset dy="-15.9842"/>
<feGaussianBlur stdDeviation="9.83644"/>
<feColorMatrix type="matrix" values="0 0 0 0 0.137255 0 0 0 0 0.313726 0 0 0 0 0.905882 0 0 0 0.182445 0"/>
<feBlend mode="normal" in2="effect2_dropShadow_1211_4584" result="effect3_dropShadow_1211_4584"/>
<feColorMatrix in="SourceAlpha" type="matrix" values="0 0 0 0 0 0 0 0 0 0 0 0 0 0 0 0 0 0 127 0" result="hardAlpha"/>
<feOffset dy="-53.0208"/>
<feGaussianBlur stdDeviation="32.6282"/>
<feColorMatrix type="matrix" values="0 0 0 0 0.137255 0 0 0 0 0.313726 0 0 0 0 0.905882 0 0 0 0.28 0"/>
<feBlend mode="normal" in2="effect3_dropShadow_1211_4584" result="effect4_dropShadow_1211_4584"/>
<feBlend mode="normal" in="SourceGraphic" in2="effect4_dropShadow_1211_4584" result="shape"/>
</filter>
<filter id="filter2_dd_1211_4584" x="16.3746" y="17.0364" width="61.0789" height="23.4481" filterUnits="userSpaceOnUse" color-interpolation-filters="sRGB">
<feFlood flood-opacity="0" result="BackgroundImageFix"/>
<feColorMatrix in="SourceAlpha" type="matrix" values="0 0 0 0 0 0 0 0 0 0 0 0 0 0 0 0 0 0 127 0" result="hardAlpha"/>
<feOffset dy="-3.16835"/>
<feGaussianBlur stdDeviation="1.94976"/>
<feColorMatrix type="matrix" values="0 0 0 0 0.137255 0 0 0 0 0.313726 0 0 0 0 0.905882 0 0 0 0.0975551 0"/>
<feBlend mode="normal" in2="BackgroundImageFix" result="effect1_dropShadow_1211_4584"/>
<feColorMatrix in="SourceAlpha" type="matrix" values="0 0 0 0 0 0 0 0 0 0 0 0 0 0 0 0 0 0 127 0" result="hardAlpha"/>
<feOffset dy="-8.76009"/>
<feGaussianBlur stdDeviation="5.39083"/>
<feColorMatrix type="matrix" values="0 0 0 0 0.137255 0 0 0 0 0.313726 0 0 0 0 0.905882 0 0 0 0.14 0"/>
<feBlend mode="normal" in2="effect1_dropShadow_1211_4584" result="effect2_dropShadow_1211_4584"/>
<feBlend mode="normal" in="SourceGraphic" in2="effect2_dropShadow_1211_4584" result="shape"/>
</filter>
<filter id="filter3_dd_1211_4584" x="16.3746" y="22.9202" width="76.1571" height="23.4481" filterUnits="userSpaceOnUse" color-interpolation-filters="sRGB">
<feFlood flood-opacity="0" result="BackgroundImageFix"/>
<feColorMatrix in="SourceAlpha" type="matrix" values="0 0 0 0 0 0 0 0 0 0 0 0 0 0 0 0 0 0 127 0" result="hardAlpha"/>
<feOffset dy="-3.16835"/>
<feGaussianBlur stdDeviation="1.94976"/>
<feColorMatrix type="matrix" values="0 0 0 0 0.137255 0 0 0 0 0.313726 0 0 0 0 0.905882 0 0 0 0.0975551 0"/>
<feBlend mode="normal" in2="BackgroundImageFix" result="effect1_dropShadow_1211_4584"/>
<feColorMatrix in="SourceAlpha" type="matrix" values="0 0 0 0 0 0 0 0 0 0 0 0 0 0 0 0 0 0 127 0" result="hardAlpha"/>
<feOffset dy="-8.76009"/>
<feGaussianBlur stdDeviation="5.39083"/>
<feColorMatrix type="matrix" values="0 0 0 0 0.137255 0 0 0 0 0.313726 0 0 0 0 0.905882 0 0 0 0.14 0"/>
<feBlend mode="normal" in2="effect1_dropShadow_1211_4584" result="effect2_dropShadow_1211_4584"/>
<feBlend mode="normal" in="SourceGraphic" in2="effect2_dropShadow_1211_4584" result="shape"/>
</filter>
<filter id="filter4_dd_1211_4584" x="177.729" y="38.4824" width="32.003" height="12.2032" filterUnits="userSpaceOnUse" color-interpolation-filters="sRGB">
<feFlood flood-opacity="0" result="BackgroundImageFix"/>
<feColorMatrix in="SourceAlpha" type="matrix" values="0 0 0 0 0 0 0 0 0 0 0 0 0 0 0 0 0 0 127 0" result="hardAlpha"/>
<feOffset dy="-1.65458"/>
<feGaussianBlur stdDeviation="1.01821"/>
<feColorMatrix type="matrix" values="0 0 0 0 0.137255 0 0 0 0 0.313726 0 0 0 0 0.905882 0 0 0 0.0975551 0"/>
<feBlend mode="normal" in2="BackgroundImageFix" result="effect1_dropShadow_1211_4584"/>
<feColorMatrix in="SourceAlpha" type="matrix" values="0 0 0 0 0 0 0 0 0 0 0 0 0 0 0 0 0 0 127 0" result="hardAlpha"/>
<feOffset dy="-4.57471"/>
<feGaussianBlur stdDeviation="2.81521"/>
<feColorMatrix type="matrix" values="0 0 0 0 0.137255 0 0 0 0 0.313726 0 0 0 0 0.905882 0 0 0 0.14 0"/>
<feBlend mode="normal" in2="effect1_dropShadow_1211_4584" result="effect2_dropShadow_1211_4584"/>
<feBlend mode="normal" in="SourceGraphic" in2="effect2_dropShadow_1211_4584" result="shape"/>
</filter>
<filter id="filter5_dd_1211_4584" x="177.729" y="34.541" width="39.5421" height="12.2032" filterUnits="userSpaceOnUse" color-interpolation-filters="sRGB">
<feFlood flood-opacity="0" result="BackgroundImageFix"/>
<feColorMatrix in="SourceAlpha" type="matrix" values="0 0 0 0 0 0 0 0 0 0 0 0 0 0 0 0 0 0 127 0" result="hardAlpha"/>
<feOffset dy="-1.65458"/>
<feGaussianBlur stdDeviation="1.01821"/>
<feColorMatrix type="matrix" values="0 0 0 0 0.137255 0 0 0 0 0.313726 0 0 0 0 0.905882 0 0 0 0.0975551 0"/>
<feBlend mode="normal" in2="BackgroundImageFix" result="effect1_dropShadow_1211_4584"/>
<feColorMatrix in="SourceAlpha" type="matrix" values="0 0 0 0 0 0 0 0 0 0 0 0 0 0 0 0 0 0 127 0" result="hardAlpha"/>
<feOffset dy="-4.57471"/>
<feGaussianBlur stdDeviation="2.81521"/>
<feColorMatrix type="matrix" values="0 0 0 0 0.137255 0 0 0 0 0.313726 0 0 0 0 0.905882 0 0 0 0.14 0"/>
<feBlend mode="normal" in2="effect1_dropShadow_1211_4584" result="effect2_dropShadow_1211_4584"/>
<feBlend mode="normal" in="SourceGraphic" in2="effect2_dropShadow_1211_4584" result="shape"/>
</filter>
<filter id="filter6_dd_1211_4584" x="16.9789" y="166.282" width="25.7141" height="18.177" filterUnits="userSpaceOnUse" color-interpolation-filters="sRGB">
<feFlood flood-opacity="0" result="BackgroundImageFix"/>
<feColorMatrix in="SourceAlpha" type="matrix" values="0 0 0 0 0 0 0 0 0 0 0 0 0 0 0 0 0 0 127 0" result="hardAlpha"/>
<feOffset dy="-2.39387"/>
<feGaussianBlur stdDeviation="1.47315"/>
<feColorMatrix type="matrix" values="0 0 0 0 0.137255 0 0 0 0 0.313726 0 0 0 0 0.905882 0 0 0 0.0975551 0"/>
<feBlend mode="normal" in2="BackgroundImageFix" result="effect1_dropShadow_1211_4584"/>
<feColorMatrix in="SourceAlpha" type="matrix" values="0 0 0 0 0 0 0 0 0 0 0 0 0 0 0 0 0 0 127 0" result="hardAlpha"/>
<feOffset dy="-6.61874"/>
<feGaussianBlur stdDeviation="4.07307"/>
<feColorMatrix type="matrix" values="0 0 0 0 0.137255 0 0 0 0 0.313726 0 0 0 0 0.905882 0 0 0 0.14 0"/>
<feBlend mode="normal" in2="effect1_dropShadow_1211_4584" result="effect2_dropShadow_1211_4584"/>
<feBlend mode="normal" in="SourceGraphic" in2="effect2_dropShadow_1211_4584" result="shape"/>
</filter>
<filter id="filter7_dd_1211_4584" x="27.7836" y="166.282" width="35.761" height="18.177" filterUnits="userSpaceOnUse" color-interpolation-filters="sRGB">
<feFlood flood-opacity="0" result="BackgroundImageFix"/>
<feColorMatrix in="SourceAlpha" type="matrix" values="0 0 0 0 0 0 0 0 0 0 0 0 0 0 0 0 0 0 127 0" result="hardAlpha"/>
<feOffset dy="-2.39387"/>
<feGaussianBlur stdDeviation="1.47315"/>
<feColorMatrix type="matrix" values="0 0 0 0 0.137255 0 0 0 0 0.313726 0 0 0 0 0.905882 0 0 0 0.0975551 0"/>
<feBlend mode="normal" in2="BackgroundImageFix" result="effect1_dropShadow_1211_4584"/>
<feColorMatrix in="SourceAlpha" type="matrix" values="0 0 0 0 0 0 0 0 0 0 0 0 0 0 0 0 0 0 127 0" result="hardAlpha"/>
<feOffset dy="-6.61874"/>
<feGaussianBlur stdDeviation="4.07307"/>
<feColorMatrix type="matrix" values="0 0 0 0 0.137255 0 0 0 0 0.313726 0 0 0 0 0.905882 0 0 0 0.14 0"/>
<feBlend mode="normal" in2="effect1_dropShadow_1211_4584" result="effect2_dropShadow_1211_4584"/>
<feBlend mode="normal" in="SourceGraphic" in2="effect2_dropShadow_1211_4584" result="shape"/>
</filter>
<filter id="filter8_dd_1211_4584" x="16.9789" y="171.166" width="40.1595" height="18.177" filterUnits="userSpaceOnUse" color-interpolation-filters="sRGB">
<feFlood flood-opacity="0" result="BackgroundImageFix"/>
<feColorMatrix in="SourceAlpha" type="matrix" values="0 0 0 0 0 0 0 0 0 0 0 0 0 0 0 0 0 0 127 0" result="hardAlpha"/>
<feOffset dy="-2.39387"/>
<feGaussianBlur stdDeviation="1.47315"/>
<feColorMatrix type="matrix" values="0 0 0 0 0.137255 0 0 0 0 0.313726 0 0 0 0 0.905882 0 0 0 0.0975551 0"/>
<feBlend mode="normal" in2="BackgroundImageFix" result="effect1_dropShadow_1211_4584"/>
<feColorMatrix in="SourceAlpha" type="matrix" values="0 0 0 0 0 0 0 0 0 0 0 0 0 0 0 0 0 0 127 0" result="hardAlpha"/>
<feOffset dy="-6.61874"/>
<feGaussianBlur stdDeviation="4.07307"/>
<feColorMatrix type="matrix" values="0 0 0 0 0.137255 0 0 0 0 0.313726 0 0 0 0 0.905882 0 0 0 0.14 0"/>
<feBlend mode="normal" in2="effect1_dropShadow_1211_4584" result="effect2_dropShadow_1211_4584"/>
<feBlend mode="normal" in="SourceGraphic" in2="effect2_dropShadow_1211_4584" result="shape"/>
</filter>
<filter id="filter9_dd_1211_4584" x="42.2289" y="171.175" width="33.097" height="18.1595" filterUnits="userSpaceOnUse" color-interpolation-filters="sRGB">
<feFlood flood-opacity="0" result="BackgroundImageFix"/>
<feColorMatrix in="SourceAlpha" type="matrix" values="0 0 0 0 0 0 0 0 0 0 0 0 0 0 0 0 0 0 127 0" result="hardAlpha"/>
<feOffset dy="-2.39387"/>
<feGaussianBlur stdDeviation="1.47315"/>
<feColorMatrix type="matrix" values="0 0 0 0 0.137255 0 0 0 0 0.313726 0 0 0 0 0.905882 0 0 0 0.0975551 0"/>
<feBlend mode="normal" in2="BackgroundImageFix" result="effect1_dropShadow_1211_4584"/>
<feColorMatrix in="SourceAlpha" type="matrix" values="0 0 0 0 0 0 0 0 0 0 0 0 0 0 0 0 0 0 127 0" result="hardAlpha"/>
<feOffset dy="-6.61874"/>
<feGaussianBlur stdDeviation="4.07307"/>
<feColorMatrix type="matrix" values="0 0 0 0 0.137255 0 0 0 0 0.313726 0 0 0 0 0.905882 0 0 0 0.14 0"/>
<feBlend mode="normal" in2="effect1_dropShadow_1211_4584" result="effect2_dropShadow_1211_4584"/>
<feBlend mode="normal" in="SourceGraphic" in2="effect2_dropShadow_1211_4584" result="shape"/>
</filter>
<filter id="filter10_dd_1211_4584" x="174.109" y="153.84" width="86.5164" height="23.4481" filterUnits="userSpaceOnUse" color-interpolation-filters="sRGB">
<feFlood flood-opacity="0" result="BackgroundImageFix"/>
<feColorMatrix in="SourceAlpha" type="matrix" values="0 0 0 0 0 0 0 0 0 0 0 0 0 0 0 0 0 0 127 0" result="hardAlpha"/>
<feOffset dy="-3.16835"/>
<feGaussianBlur stdDeviation="1.94976"/>
<feColorMatrix type="matrix" values="0 0 0 0 0.137255 0 0 0 0 0.313726 0 0 0 0 0.905882 0 0 0 0.0975551 0"/>
<feBlend mode="normal" in2="BackgroundImageFix" result="effect1_dropShadow_1211_4584"/>
<feColorMatrix in="SourceAlpha" type="matrix" values="0 0 0 0 0 0 0 0 0 0 0 0 0 0 0 0 0 0 127 0" result="hardAlpha"/>
<feOffset dy="-8.76009"/>
<feGaussianBlur stdDeviation="5.39083"/>
<feColorMatrix type="matrix" values="0 0 0 0 0.137255 0 0 0 0 0.313726 0 0 0 0 0.905882 0 0 0 0.14 0"/>
<feBlend mode="normal" in2="effect1_dropShadow_1211_4584" result="effect2_dropShadow_1211_4584"/>
<feBlend mode="normal" in="SourceGraphic" in2="effect2_dropShadow_1211_4584" result="shape"/>
</filter>
<radialGradient id="paint0_radial_1211_4584" cx="0" cy="0" r="1" gradientUnits="userSpaceOnUse" gradientTransform="translate(138.402 50.5) rotate(90) scale(248.136 263.752)">
<stop/>
<stop offset="0.630476" stop-color="#666666" stop-opacity="0"/>
</radialGradient>
<linearGradient id="paint1_linear_1211_4584" x1="20.3817" y1="37.7054" x2="67.366" y2="47.7985" gradientUnits="userSpaceOnUse">
<stop stop-color="#082071"/>
<stop offset="0.54711" stop-color="#0E3DD7"/>
<stop offset="1" stop-color="#082071"/>
</linearGradient>
<linearGradient id="paint2_linear_1211_4584" x1="17.7975" y1="43.5892" x2="80.2039" y2="62.1092" gradientUnits="userSpaceOnUse">
<stop stop-color="#082071"/>
<stop offset="0.54711" stop-color="#0E3DD7"/>
<stop offset="1" stop-color="#082071"/>
</linearGradient>
<linearGradient id="paint3_linear_1211_4584" x1="179.804" y1="49.0663" x2="204.353" y2="43.5306" gradientUnits="userSpaceOnUse">
<stop stop-color="#082071"/>
<stop offset="0.54711" stop-color="#0E3DD7"/>
<stop offset="1" stop-color="#082071"/>
</linearGradient>
<linearGradient id="paint4_linear_1211_4584" x1="178.512" y1="45.1249" x2="210.647" y2="35.2453" gradientUnits="userSpaceOnUse">
<stop stop-color="#082071"/>
<stop offset="0.54711" stop-color="#0E3DD7"/>
<stop offset="1" stop-color="#082071"/>
</linearGradient>
<linearGradient id="paint5_linear_1211_4584" x1="260.979" y1="174.509" x2="189.143" y2="199.875" gradientUnits="userSpaceOnUse">
<stop stop-color="#082071"/>
<stop offset="0.54711" stop-color="#0E3DD7"/>
<stop offset="1" stop-color="#082071"/>
</linearGradient>
<linearGradient id="paint6_linear_1211_4584" x1="260.97" y1="181.394" x2="189.181" y2="206.721" gradientUnits="userSpaceOnUse">
<stop stop-color="#082071"/>
<stop offset="0.54711" stop-color="#0E3DD7"/>
<stop offset="1" stop-color="#082071"/>
</linearGradient>
<linearGradient id="paint7_linear_1211_4584" x1="277" y1="108.821" x2="0" y2="108.821" gradientUnits="userSpaceOnUse">
<stop stop-color="#090A13"/>
<stop offset="0.144085" stop-color="#090A13" stop-opacity="0.5"/>
<stop offset="0.46056" stop-color="#090A13" stop-opacity="0.15"/>
<stop offset="0.881828" stop-color="#090A13" stop-opacity="0.5"/>
<stop offset="1" stop-color="#090A13"/>
</linearGradient>
<clipPath id="clip0_1211_4584">
<rect width="277" height="217" rx="18.8435" fill="white"/>
</clipPath>
</defs>
</svg>
