<svg width="277" height="217" viewBox="0 0 277 217" fill="none" xmlns="http://www.w3.org/2000/svg">
<g clip-path="url(#clip0_1211_4206)">
<rect width="277" height="217" rx="18.8435" fill="#090A13"/>
<g filter="url(#filter0_f_1211_4206)">
<ellipse cx="138.5" cy="-16.5" rx="84.5" ry="44.5" fill="#1F53FF"/>
</g>
<mask id="mask0_1211_4206" style="mask-type:alpha" maskUnits="userSpaceOnUse" x="-611" y="-74" width="1498" height="346">
<path d="M886.499 -72.6687L-609.606 -72.6688M886.499 -48.1434L-609.606 -48.1436M886.499 -23.6165L-609.606 -23.6166M-609.695 270.968L-609.695 -72.7588M-585.168 270.968L-585.168 -72.7588M-560.645 270.968L-560.645 -72.7588M-536.118 270.968L-536.118 -72.7588M-511.591 270.968L-511.591 -72.7588M-487.064 270.968L-487.064 -72.7588M-462.537 270.968L-462.537 -72.7588M-438.01 270.968L-438.01 -72.7588M-413.487 270.968L-413.487 -72.7588M-388.96 270.968L-388.96 -72.7588M-364.433 270.968L-364.433 -72.7588M-339.906 270.968L-339.906 -72.7588M-315.379 270.968L-315.379 -72.7588M-290.852 270.968L-290.852 -72.7588M-266.325 270.968L-266.325 -72.7588M-241.802 270.968L-241.802 -72.7588M-217.275 270.968L-217.275 -72.7588M-192.748 270.968L-192.748 -72.7588M-168.224 270.968L-168.224 -72.7588M-143.697 270.968L-143.697 -72.7588M-119.167 270.968L-119.167 -72.7588M-94.6435 270.968L-94.6435 -72.7588M-70.1166 270.968L-70.1166 -72.7588M-45.5896 270.968L-45.5896 -72.7588M-21.0627 270.968L-21.0626 -72.7588M3.46074 270.968L3.4608 -72.7588M27.9877 270.968L27.9878 -72.7588M52.5147 270.968L52.5147 -72.7588M77.0416 270.968L77.0416 -72.7588M101.569 270.968L101.569 -72.7588M126.095 270.968L126.095 -72.7588M150.619 270.968L150.619 -72.7588M175.146 270.968L175.146 -72.7588M199.673 270.968L199.673 -72.7588M224.196 270.968L224.196 -72.7588M248.727 270.968L248.727 -72.7588M273.254 270.968L273.254 -72.7588M297.777 270.968L297.777 -72.7588M322.304 270.968L322.304 -72.7588M346.831 270.968V-72.7588M371.358 270.968L371.358 -72.7588M395.881 270.968V-72.7588M420.412 270.968L420.412 -72.7588M444.939 270.968L444.939 -72.7588M469.462 270.968L469.462 -72.7588M493.989 270.968L493.989 -72.7588M518.516 270.968V-72.7588M543.04 270.968V-72.7588M567.567 270.968V-72.7588M592.093 270.968L592.093 -72.7588M616.62 270.968V-72.7588M641.147 270.968V-72.7588M665.674 270.968V-72.7588M690.198 270.968L690.198 -72.7588M714.725 270.968V-72.7588M739.252 270.968V-72.7588M763.778 270.968V-72.7588M788.305 270.968V-72.7588M812.832 270.968L812.832 -72.7588M837.359 270.968V-72.7588M861.883 270.968L861.883 -72.7588M886.41 270.968V-72.7588M886.499 0.910433L-609.606 0.910292M886.499 25.6153L-609.606 25.6151M886.499 50.1405L-609.606 50.1403M886.499 74.6691L-609.606 74.669M886.499 99.1943L-609.606 99.1942M886.499 123.72L-609.606 123.719M886.499 148.248L-609.606 148.248M886.499 172.773L-609.606 172.773M886.499 197.478L-609.606 197.478M886.499 222.005L-609.606 222.005M886.499 246.532L-609.606 246.532M886.499 271.057L-609.606 271.057" stroke="url(#paint0_radial_1211_4206)"/>
</mask>
<g mask="url(#mask0_1211_4206)">
<path opacity="0.43" d="M886.499 -72.6687L-609.606 -72.6688M886.499 -48.1434L-609.606 -48.1436M886.499 -23.6165L-609.606 -23.6166M-609.695 270.968L-609.695 -72.7588M-585.168 270.968L-585.168 -72.7588M-560.645 270.968L-560.645 -72.7588M-536.118 270.968L-536.118 -72.7588M-511.591 270.968L-511.591 -72.7588M-487.064 270.968L-487.064 -72.7588M-462.537 270.968L-462.537 -72.7588M-438.01 270.968L-438.01 -72.7588M-413.487 270.968L-413.487 -72.7588M-388.96 270.968L-388.96 -72.7588M-364.433 270.968L-364.433 -72.7588M-339.906 270.968L-339.906 -72.7588M-315.379 270.968L-315.379 -72.7588M-290.852 270.968L-290.852 -72.7588M-266.325 270.968L-266.325 -72.7588M-241.802 270.968L-241.802 -72.7588M-217.275 270.968L-217.275 -72.7588M-192.748 270.968L-192.748 -72.7588M-168.224 270.968L-168.224 -72.7588M-143.697 270.968L-143.697 -72.7588M-119.167 270.968L-119.167 -72.7588M-94.6435 270.968L-94.6435 -72.7588M-70.1166 270.968L-70.1166 -72.7588M-45.5896 270.968L-45.5896 -72.7588M-21.0627 270.968L-21.0626 -72.7588M3.46074 270.968L3.4608 -72.7588M27.9877 270.968L27.9878 -72.7588M52.5147 270.968L52.5147 -72.7588M77.0416 270.968L77.0416 -72.7588M101.569 270.968L101.569 -72.7588M126.095 270.968L126.095 -72.7588M150.619 270.968L150.619 -72.7588M175.146 270.968L175.146 -72.7588M199.673 270.968L199.673 -72.7588M224.196 270.968L224.196 -72.7588M248.727 270.968L248.727 -72.7588M273.254 270.968L273.254 -72.7588M297.777 270.968L297.777 -72.7588M322.304 270.968L322.304 -72.7588M346.831 270.968V-72.7588M371.358 270.968L371.358 -72.7588M395.881 270.968V-72.7588M420.412 270.968L420.412 -72.7588M444.939 270.968L444.939 -72.7588M469.462 270.968L469.462 -72.7588M493.989 270.968L493.989 -72.7588M518.516 270.968V-72.7588M543.04 270.968V-72.7588M567.567 270.968V-72.7588M592.093 270.968L592.093 -72.7588M616.62 270.968V-72.7588M641.147 270.968V-72.7588M665.674 270.968V-72.7588M690.198 270.968L690.198 -72.7588M714.725 270.968V-72.7588M739.252 270.968V-72.7588M763.778 270.968V-72.7588M788.305 270.968V-72.7588M812.832 270.968L812.832 -72.7588M837.359 270.968V-72.7588M861.883 270.968L861.883 -72.7588M886.41 270.968V-72.7588M886.499 0.910433L-609.606 0.910292M886.499 25.6153L-609.606 25.6151M886.499 50.1405L-609.606 50.1403M886.499 74.6691L-609.606 74.669M886.499 99.1943L-609.606 99.1942M886.499 123.72L-609.606 123.719M886.499 148.248L-609.606 148.248M886.499 172.773L-609.606 172.773M886.499 197.478L-609.606 197.478M886.499 222.005L-609.606 222.005M886.499 246.532L-609.606 246.532M886.499 271.057L-609.606 271.057" stroke="#2525AF"/>
</g>
<g filter="url(#filter1_d_1211_4206)">
<rect x="25.4375" y="35.1494" width="209.163" height="154.517" rx="11.4919" fill="#191B32"/>
</g>
<path opacity="0.99" d="M25.4375 44.5647C25.4375 39.3648 29.6529 35.1494 34.8528 35.1494H224.728C229.928 35.1494 234.143 39.3648 234.143 44.5647H25.4375Z" fill="#12131D"/>
<rect width="44.57" height="4.71088" rx="2.35544" transform="matrix(-1 1.25175e-07 2.51682e-07 1 97.2656 138.569)" fill="#28304E"/>
<rect width="14.2624" height="4.71088" rx="2.35544" transform="matrix(-1 1.25175e-07 2.51682e-07 1 49.125 138.569)" fill="#28304E"/>
<rect width="23.1764" height="4.71088" rx="2.35544" transform="matrix(-1 2.16405e-07 1.41913e-07 1 152.078 149.267)" fill="#28304E"/>
<rect width="22.285" height="4.71088" rx="2.35544" transform="matrix(-1 2.16405e-07 1.41913e-07 1 125.328 149.267)" fill="#28304E"/>
<rect width="23.1764" height="4.71088" rx="2.35544" transform="matrix(1 -2.16405e-07 -1.41913e-07 -1 34.8594 153.978)" fill="#28304E"/>
<rect width="37.4388" height="4.71087" rx="2.35544" transform="matrix(-1 2.16405e-07 1.41913e-07 1 99.4844 149.267)" fill="#28304E"/>
<path d="M48.709 118.705C50.0099 118.705 51.0645 119.76 51.0645 121.061C51.0644 122.361 50.0099 123.416 48.709 123.416H37.2148C35.914 123.416 34.8594 122.361 34.8594 121.061C34.8594 119.76 35.914 118.705 37.2148 118.705H48.709ZM100.444 118.705C101.745 118.705 102.8 119.76 102.8 121.061C102.8 122.361 101.745 123.416 100.444 123.416H77.9004C76.5995 123.416 75.5449 122.361 75.5449 121.061C75.5449 119.76 76.5995 118.705 77.9004 118.705H100.444ZM120.418 118.705C121.719 118.705 122.773 119.76 122.773 121.061C122.773 122.361 121.719 123.416 120.418 123.416H108.924C107.623 123.416 106.568 122.361 106.568 121.061C106.568 119.76 107.623 118.705 108.924 118.705H120.418ZM158.807 118.705C160.108 118.705 161.162 119.76 161.162 121.061C161.162 122.361 160.108 123.416 158.807 123.416H128.897C127.597 123.416 126.542 122.361 126.542 121.061C126.542 119.76 127.597 118.705 128.897 118.705H158.807ZM69.4189 118.704C70.7196 118.704 71.7744 119.759 71.7744 121.06C71.7744 122.36 70.7196 123.415 69.4189 123.415H57.1875C55.8866 123.415 54.832 122.36 54.832 121.06C54.832 119.759 55.8866 118.704 57.1875 118.704H69.4189ZM51.6563 108.009C52.9568 108.009 54.0107 109.064 54.0107 110.364C54.0107 111.665 52.9569 112.72 51.6563 112.72H37.2148C35.914 112.72 34.8594 111.665 34.8594 110.364C34.8594 109.064 35.9141 108.009 37.2148 108.009H51.6563ZM86.3633 108.009C87.6641 108.009 88.7187 109.063 88.7188 110.364C88.7186 111.665 87.664 112.72 86.3633 112.72H60.1367C58.836 112.72 57.7814 111.665 57.7813 110.364C57.7812 109.063 58.8359 108.009 60.1367 108.009H86.3633ZM108.547 108.009C109.848 108.009 110.902 109.063 110.902 110.364C110.902 111.665 109.848 112.72 108.547 112.72H94.8428C93.542 112.72 92.4874 111.665 92.4873 110.364C92.4873 109.063 93.542 108.009 94.8428 108.009H108.547ZM131.467 108.009C132.768 108.009 133.822 109.063 133.822 110.364C133.822 111.665 132.768 112.72 131.467 112.72H117.025C115.725 112.72 114.671 111.665 114.671 110.364C114.671 109.064 115.725 108.009 117.025 108.009H131.467Z" fill="url(#paint1_linear_1211_4206)"/>
<g filter="url(#filter2_d_1211_4206)">
<path d="M41.418 90.4336C42.7188 90.4336 43.7734 91.4882 43.7734 92.7891C43.7734 94.0899 42.7188 95.1445 41.418 95.1445H37.2148C35.914 95.1445 34.8594 94.0899 34.8594 92.7891C34.8594 91.4882 35.914 90.4336 37.2148 90.4336H41.418ZM74.4004 90.4336C75.7013 90.4336 76.7558 91.4882 76.7559 92.7891C76.7559 94.0899 75.7013 95.1445 74.4004 95.1445H50.5869C49.286 95.1445 48.2314 94.0899 48.2314 92.7891C48.2315 91.4882 49.2861 90.4336 50.5869 90.4336H74.4004ZM55.6807 79.7373C56.9814 79.7375 58.0361 80.792 58.0361 82.0928C58.0361 83.3935 56.9814 84.4481 55.6807 84.4482H37.2148C35.914 84.4482 34.8594 83.3936 34.8594 82.0928C34.8594 80.7919 35.914 79.7373 37.2148 79.7373H55.6807ZM97.125 79.7373C98.4259 79.7373 99.4805 80.7919 99.4805 82.0928C99.4805 83.3936 98.4259 84.4482 97.125 84.4482H64.3975C63.0966 84.4482 62.042 83.3936 62.042 82.0928C62.042 80.7919 63.0966 79.7373 64.3975 79.7373H97.125ZM122.975 79.7373C124.275 79.7373 125.33 80.7919 125.33 82.0928C125.33 83.3936 124.275 84.4482 122.975 84.4482H105.4C104.1 84.4482 103.045 83.3936 103.045 82.0928C103.045 80.7919 104.1 79.7374 105.4 79.7373H122.975ZM149.719 79.7373C151.02 79.7373 152.074 80.7919 152.074 82.0928C152.074 83.3936 151.02 84.4482 149.719 84.4482H131.253C129.952 84.4481 128.897 83.3935 128.897 82.0928C128.897 80.792 129.952 79.7375 131.253 79.7373H149.719ZM52.1152 69.04C53.4159 69.0402 54.4707 70.0947 54.4707 71.3955C54.4707 72.6963 53.4159 73.7508 52.1152 73.751H37.2148C35.914 73.7509 34.8594 72.6963 34.8594 71.3955C34.8594 70.0947 35.914 69.0401 37.2148 69.04H52.1152ZM76.1836 69.04C77.4845 69.04 78.5391 70.0946 78.5391 71.3955C78.5391 72.6964 77.4845 73.751 76.1836 73.751H60.3926C59.0918 73.7509 58.0371 72.6963 58.0371 71.3955C58.0371 70.0947 59.0918 69.0401 60.3926 69.04H76.1836ZM112.73 69.04C114.031 69.0403 115.086 70.0948 115.086 71.3955C115.086 72.6962 114.031 73.7507 112.73 73.751H84.459C83.1582 73.7509 82.1035 72.6963 82.1035 71.3955C82.1035 70.0947 83.1582 69.0401 84.459 69.04H112.73ZM135.906 69.04C137.207 69.04 138.262 70.0947 138.262 71.3955C138.262 72.6964 137.207 73.751 135.906 73.751H121.007C119.706 73.751 118.651 72.6964 118.651 71.3955C118.651 70.0947 119.706 69.04 121.007 69.04H135.906ZM181.367 69.04C182.668 69.04 183.723 70.0947 183.723 71.3955C183.723 72.6964 182.668 73.751 181.367 73.751H144.183C142.882 73.751 141.827 72.6964 141.827 71.3955C141.827 70.0947 142.882 69.04 144.183 69.04H181.367ZM74.0742 58.5615C75.375 58.5615 76.4297 59.6162 76.4297 60.917C76.4296 62.2177 75.375 63.2725 74.0742 63.2725H37.2148C35.9141 63.2725 34.8595 62.2177 34.8594 60.917C34.8594 59.6162 35.914 58.5615 37.2148 58.5615H74.0742ZM98.2695 58.5615C99.5703 58.5615 100.625 59.6162 100.625 60.917C100.625 62.2177 99.5703 63.2725 98.2695 63.2725H82.9375C81.6367 63.2725 80.5821 62.2177 80.582 60.917C80.582 59.6162 81.6367 58.5615 82.9375 58.5615H98.2695ZM134.645 58.5615C135.945 58.5615 137 59.6163 137 60.917C137 62.2178 135.945 63.2725 134.645 63.2725H106.693C105.393 63.2725 104.338 62.2178 104.338 60.917C104.338 59.6163 105.393 58.5615 106.693 58.5615H134.645ZM158.396 58.5615C159.697 58.5615 160.752 59.6163 160.752 60.917C160.752 62.2178 159.697 63.2725 158.396 63.2725H143.064C141.764 63.2724 140.709 62.2177 140.709 60.917C140.709 59.6163 141.764 58.5616 143.064 58.5615H158.396Z" fill="url(#paint2_linear_1211_4206)"/>
</g>
<circle cx="36.8973" cy="40.1005" r="1.56922" fill="#1D1F2D"/>
<circle cx="42.8583" cy="40.1005" r="1.56922" fill="#1D1F2D"/>
<circle cx="48.8192" cy="40.1005" r="1.56922" fill="#1D1F2D"/>
<g filter="url(#filter3_d_1211_4206)">
<rect x="192.508" y="85.085" width="57.1672" height="107.075" rx="11.4919" fill="#131420"/>
</g>
<path opacity="0.99" d="M207.023 93.7059C207.023 95.4599 208.445 96.8818 210.199 96.8818H232.885C234.639 96.8818 236.061 95.4599 236.061 93.7059C236.061 91.9518 234.639 90.5299 232.885 90.5299H210.199C208.445 90.5299 207.023 91.9518 207.023 93.7059Z" fill="#1D1F2D"/>
<rect x="243.906" y="135.655" width="11.8557" height="1.81489" rx="0.907446" transform="rotate(180 243.906 135.655)" fill="#1F53FF"/>
<rect x="230.289" y="135.654" width="11.8557" height="1.81489" rx="0.907446" transform="rotate(180 230.289 135.654)" fill="#1F53FF"/>
<rect x="216.703" y="135.725" width="7.53742" height="1.88435" rx="0.942177" transform="rotate(180 216.703 135.725)" fill="#1F53FF"/>
<rect x="207.281" y="135.725" width="10.3639" height="1.88435" rx="0.942177" transform="rotate(180 207.281 135.725)" fill="#1F53FF"/>
<rect x="205.398" y="146.891" width="8.52712" height="1.81489" rx="0.907446" transform="rotate(180 205.398 146.891)" fill="#1F53FF"/>
<rect x="238.219" y="141.308" width="16.017" height="1.88435" rx="0.942177" transform="rotate(180 238.219 141.308)" fill="#1F53FF"/>
<rect x="220.891" y="141.238" width="8.52712" height="1.81489" rx="0.907446" transform="rotate(180 220.891 141.238)" fill="#1F53FF"/>
<rect x="210.781" y="141.238" width="13.896" height="1.81489" rx="0.907446" transform="rotate(180 210.781 141.238)" fill="#1F53FF"/>
<rect x="235.758" y="112.309" width="9.80042" height="1.81489" rx="0.907446" transform="rotate(180 235.758 112.309)" fill="#1F53FF"/>
<rect x="224.5" y="112.309" width="9.80042" height="1.81489" rx="0.907446" transform="rotate(180 224.5 112.309)" fill="#1F53FF"/>
<rect x="212.891" y="112.309" width="15.9711" height="1.81489" rx="0.907446" transform="rotate(180 212.891 112.309)" fill="#1F53FF"/>
<rect x="231.391" y="123.472" width="16.3335" height="1.81483" rx="0.907416" transform="rotate(180 231.391 123.472)" fill="#1F53FF"/>
<rect x="213.242" y="123.472" width="16.3335" height="1.81483" rx="0.907416" transform="rotate(180 213.242 123.472)" fill="#1F53FF"/>
<rect x="239.562" y="123.472" width="6.35191" height="1.81483" rx="0.907416" transform="rotate(180 239.562 123.472)" fill="#1F53FF"/>
<rect x="224.141" y="117.889" width="15.4261" height="1.81483" rx="0.907416" transform="rotate(180 224.141 117.889)" fill="#1F53FF"/>
<rect x="206.898" y="117.889" width="9.98158" height="1.81483" rx="0.907416" transform="rotate(180 206.898 117.889)" fill="#1F53FF"/>
<rect x="231.398" y="164.65" width="16.3335" height="1.81483" rx="0.907416" transform="rotate(180 231.398 164.65)" fill="#28304E"/>
<rect x="213.25" y="164.65" width="16.3335" height="1.81483" rx="0.907416" transform="rotate(180 213.25 164.65)" fill="#28304E"/>
<rect x="239.562" y="164.65" width="6.35191" height="1.81483" rx="0.907416" transform="rotate(180 239.562 164.65)" fill="#28304E"/>
<rect x="224.133" y="159.066" width="15.4261" height="1.81483" rx="0.907416" transform="rotate(180 224.133 159.066)" fill="#28304E"/>
<rect x="206.891" y="159.066" width="9.98158" height="1.81483" rx="0.907416" transform="rotate(180 206.891 159.066)" fill="#28304E"/>
<rect width="277" height="217.643" rx="18.8435" fill="url(#paint3_linear_1211_4206)" fill-opacity="0.6"/>
</g>
<defs>
<filter id="filter0_f_1211_4206" x="-130" y="-245" width="537" height="457" filterUnits="userSpaceOnUse" color-interpolation-filters="sRGB">
<feFlood flood-opacity="0" result="BackgroundImageFix"/>
<feBlend mode="normal" in="SourceGraphic" in2="BackgroundImageFix" result="shape"/>
<feGaussianBlur stdDeviation="92" result="effect1_foregroundBlur_1211_4206"/>
</filter>
<filter id="filter1_d_1211_4206" x="-27.1642" y="-34.2796" width="314.368" height="259.72" filterUnits="userSpaceOnUse" color-interpolation-filters="sRGB">
<feFlood flood-opacity="0" result="BackgroundImageFix"/>
<feColorMatrix in="SourceAlpha" type="matrix" values="0 0 0 0 0 0 0 0 0 0 0 0 0 0 0 0 0 0 127 0" result="hardAlpha"/>
<feOffset dy="-16.8273"/>
<feGaussianBlur stdDeviation="26.3009"/>
<feColorMatrix type="matrix" values="0 0 0 0 0.137255 0 0 0 0 0.313726 0 0 0 0 0.905882 0 0 0 0.18 0"/>
<feBlend mode="normal" in2="BackgroundImageFix" result="effect1_dropShadow_1211_4206"/>
<feBlend mode="normal" in="SourceGraphic" in2="effect1_dropShadow_1211_4206" result="shape"/>
</filter>
<filter id="filter2_d_1211_4206" x="31.6379" y="52.7225" width="155.302" height="43.026" filterUnits="userSpaceOnUse" color-interpolation-filters="sRGB">
<feFlood flood-opacity="0" result="BackgroundImageFix"/>
<feColorMatrix in="SourceAlpha" type="matrix" values="0 0 0 0 0 0 0 0 0 0 0 0 0 0 0 0 0 0 127 0" result="hardAlpha"/>
<feOffset dy="-2.61749"/>
<feGaussianBlur stdDeviation="1.61076"/>
<feColorMatrix type="matrix" values="0 0 0 0 0.137255 0 0 0 0 0.313726 0 0 0 0 0.905882 0 0 0 0.0975551 0"/>
<feBlend mode="normal" in2="BackgroundImageFix" result="effect1_dropShadow_1211_4206"/>
<feBlend mode="normal" in="SourceGraphic" in2="effect1_dropShadow_1211_4206" result="shape"/>
</filter>
<filter id="filter3_d_1211_4206" x="161.656" y="57.8625" width="118.868" height="168.78" filterUnits="userSpaceOnUse" color-interpolation-filters="sRGB">
<feFlood flood-opacity="0" result="BackgroundImageFix"/>
<feColorMatrix in="SourceAlpha" type="matrix" values="0 0 0 0 0 0 0 0 0 0 0 0 0 0 0 0 0 0 127 0" result="hardAlpha"/>
<feOffset dy="3.62967"/>
<feGaussianBlur stdDeviation="15.4261"/>
<feComposite in2="hardAlpha" operator="out"/>
<feColorMatrix type="matrix" values="0 0 0 0 0 0 0 0 0 0 0 0 0 0 0 0 0 0 0.25 0"/>
<feBlend mode="normal" in2="BackgroundImageFix" result="effect1_dropShadow_1211_4206"/>
<feBlend mode="normal" in="SourceGraphic" in2="effect1_dropShadow_1211_4206" result="shape"/>
</filter>
<radialGradient id="paint0_radial_1211_4206" cx="0" cy="0" r="1" gradientUnits="userSpaceOnUse" gradientTransform="translate(138.402 50.5) rotate(90) scale(248.136 263.752)">
<stop/>
<stop offset="0.630476" stop-color="#666666" stop-opacity="0"/>
</radialGradient>
<linearGradient id="paint1_linear_1211_4206" x1="13.2075" y1="117.226" x2="169.203" y2="130.325" gradientUnits="userSpaceOnUse">
<stop stop-color="#082071"/>
<stop offset="0.54711" stop-color="#0E3DD7"/>
<stop offset="1" stop-color="#082071"/>
</linearGradient>
<linearGradient id="paint2_linear_1211_4206" x1="9.33993" y1="80.446" x2="180.869" y2="67.2875" gradientUnits="userSpaceOnUse">
<stop stop-color="#082071"/>
<stop offset="0.54711" stop-color="#0E3DD7"/>
<stop offset="1" stop-color="#082071"/>
</linearGradient>
<linearGradient id="paint3_linear_1211_4206" x1="277" y1="108.821" x2="0" y2="108.821" gradientUnits="userSpaceOnUse">
<stop stop-color="#090A13"/>
<stop offset="0.267531" stop-color="#090A13" stop-opacity="0.5"/>
<stop offset="0.46056" stop-color="#090A13" stop-opacity="0.15"/>
<stop offset="0.737502" stop-color="#090A13" stop-opacity="0.5"/>
<stop offset="1" stop-color="#090A13"/>
</linearGradient>
<clipPath id="clip0_1211_4206">
<rect width="277" height="217" rx="18.8435" fill="white"/>
</clipPath>
</defs>
</svg>
