<svg width="277" height="217" viewBox="0 0 277 217" fill="none" xmlns="http://www.w3.org/2000/svg">
<g clip-path="url(#clip0_1211_4758)">
<rect width="277" height="217" rx="18.8435" fill="#090A13"/>
<g filter="url(#filter0_f_1211_4758)">
<ellipse cx="138.5" cy="-16.5" rx="84.5" ry="44.5" fill="#1F53FF"/>
</g>
<mask id="mask0_1211_4758" style="mask-type:alpha" maskUnits="userSpaceOnUse" x="-611" y="-74" width="1498" height="346">
<path d="M886.499 -72.6687L-609.606 -72.6688M886.499 -48.1434L-609.606 -48.1436M886.499 -23.6165L-609.606 -23.6166M-609.695 270.968L-609.695 -72.7588M-585.168 270.968L-585.168 -72.7588M-560.645 270.968L-560.645 -72.7588M-536.118 270.968L-536.118 -72.7588M-511.591 270.968L-511.591 -72.7588M-487.064 270.968L-487.064 -72.7588M-462.537 270.968L-462.537 -72.7588M-438.01 270.968L-438.01 -72.7588M-413.487 270.968L-413.487 -72.7588M-388.96 270.968L-388.96 -72.7588M-364.433 270.968L-364.433 -72.7588M-339.906 270.968L-339.906 -72.7588M-315.379 270.968L-315.379 -72.7588M-290.852 270.968L-290.852 -72.7588M-266.325 270.968L-266.325 -72.7588M-241.802 270.968L-241.802 -72.7588M-217.275 270.968L-217.275 -72.7588M-192.748 270.968L-192.748 -72.7588M-168.224 270.968L-168.224 -72.7588M-143.697 270.968L-143.697 -72.7588M-119.167 270.968L-119.167 -72.7588M-94.6435 270.968L-94.6435 -72.7588M-70.1166 270.968L-70.1166 -72.7588M-45.5896 270.968L-45.5896 -72.7588M-21.0627 270.968L-21.0626 -72.7588M3.46074 270.968L3.4608 -72.7588M27.9877 270.968L27.9878 -72.7588M52.5147 270.968L52.5147 -72.7588M77.0416 270.968L77.0416 -72.7588M101.569 270.968L101.569 -72.7588M126.095 270.968L126.095 -72.7588M150.619 270.968L150.619 -72.7588M175.146 270.968L175.146 -72.7588M199.673 270.968L199.673 -72.7588M224.196 270.968L224.196 -72.7588M248.727 270.968L248.727 -72.7588M273.254 270.968L273.254 -72.7588M297.777 270.968L297.777 -72.7588M322.304 270.968L322.304 -72.7588M346.831 270.968V-72.7588M371.358 270.968L371.358 -72.7588M395.881 270.968V-72.7588M420.412 270.968L420.412 -72.7588M444.939 270.968L444.939 -72.7588M469.462 270.968L469.462 -72.7588M493.989 270.968L493.989 -72.7588M518.516 270.968V-72.7588M543.04 270.968V-72.7588M567.567 270.968V-72.7588M592.093 270.968L592.093 -72.7588M616.62 270.968V-72.7588M641.147 270.968V-72.7588M665.674 270.968V-72.7588M690.198 270.968L690.198 -72.7588M714.725 270.968V-72.7588M739.252 270.968V-72.7588M763.778 270.968V-72.7588M788.305 270.968V-72.7588M812.832 270.968L812.832 -72.7588M837.359 270.968V-72.7588M861.883 270.968L861.883 -72.7588M886.41 270.968V-72.7588M886.499 0.910433L-609.606 0.910292M886.499 25.6153L-609.606 25.6151M886.499 50.1405L-609.606 50.1403M886.499 74.6691L-609.606 74.669M886.499 99.1943L-609.606 99.1942M886.499 123.72L-609.606 123.719M886.499 148.248L-609.606 148.248M886.499 172.773L-609.606 172.773M886.499 197.478L-609.606 197.478M886.499 222.005L-609.606 222.005M886.499 246.532L-609.606 246.532M886.499 271.057L-609.606 271.057" stroke="url(#paint0_radial_1211_4758)"/>
</mask>
<g mask="url(#mask0_1211_4758)">
<path opacity="0.43" d="M886.499 -72.6687L-609.606 -72.6688M886.499 -48.1434L-609.606 -48.1436M886.499 -23.6165L-609.606 -23.6166M-609.695 270.968L-609.695 -72.7588M-585.168 270.968L-585.168 -72.7588M-560.645 270.968L-560.645 -72.7588M-536.118 270.968L-536.118 -72.7588M-511.591 270.968L-511.591 -72.7588M-487.064 270.968L-487.064 -72.7588M-462.537 270.968L-462.537 -72.7588M-438.01 270.968L-438.01 -72.7588M-413.487 270.968L-413.487 -72.7588M-388.96 270.968L-388.96 -72.7588M-364.433 270.968L-364.433 -72.7588M-339.906 270.968L-339.906 -72.7588M-315.379 270.968L-315.379 -72.7588M-290.852 270.968L-290.852 -72.7588M-266.325 270.968L-266.325 -72.7588M-241.802 270.968L-241.802 -72.7588M-217.275 270.968L-217.275 -72.7588M-192.748 270.968L-192.748 -72.7588M-168.224 270.968L-168.224 -72.7588M-143.697 270.968L-143.697 -72.7588M-119.167 270.968L-119.167 -72.7588M-94.6435 270.968L-94.6435 -72.7588M-70.1166 270.968L-70.1166 -72.7588M-45.5896 270.968L-45.5896 -72.7588M-21.0627 270.968L-21.0626 -72.7588M3.46074 270.968L3.4608 -72.7588M27.9877 270.968L27.9878 -72.7588M52.5147 270.968L52.5147 -72.7588M77.0416 270.968L77.0416 -72.7588M101.569 270.968L101.569 -72.7588M126.095 270.968L126.095 -72.7588M150.619 270.968L150.619 -72.7588M175.146 270.968L175.146 -72.7588M199.673 270.968L199.673 -72.7588M224.196 270.968L224.196 -72.7588M248.727 270.968L248.727 -72.7588M273.254 270.968L273.254 -72.7588M297.777 270.968L297.777 -72.7588M322.304 270.968L322.304 -72.7588M346.831 270.968V-72.7588M371.358 270.968L371.358 -72.7588M395.881 270.968V-72.7588M420.412 270.968L420.412 -72.7588M444.939 270.968L444.939 -72.7588M469.462 270.968L469.462 -72.7588M493.989 270.968L493.989 -72.7588M518.516 270.968V-72.7588M543.04 270.968V-72.7588M567.567 270.968V-72.7588M592.093 270.968L592.093 -72.7588M616.62 270.968V-72.7588M641.147 270.968V-72.7588M665.674 270.968V-72.7588M690.198 270.968L690.198 -72.7588M714.725 270.968V-72.7588M739.252 270.968V-72.7588M763.778 270.968V-72.7588M788.305 270.968V-72.7588M812.832 270.968L812.832 -72.7588M837.359 270.968V-72.7588M861.883 270.968L861.883 -72.7588M886.41 270.968V-72.7588M886.499 0.910433L-609.606 0.910292M886.499 25.6153L-609.606 25.6151M886.499 50.1405L-609.606 50.1403M886.499 74.6691L-609.606 74.669M886.499 99.1943L-609.606 99.1942M886.499 123.72L-609.606 123.719M886.499 148.248L-609.606 148.248M886.499 172.773L-609.606 172.773M886.499 197.478L-609.606 197.478M886.499 222.005L-609.606 222.005M886.499 246.532L-609.606 246.532M886.499 271.057L-609.606 271.057" stroke="#2525AF"/>
</g>
<g filter="url(#filter1_dd_1211_4758)">
<rect x="168" y="34.8604" width="67.1587" height="67.1587" rx="13.7997" fill="#1F53FF"/>
<path fill-rule="evenodd" clip-rule="evenodd" d="M210.174 62.1971C210.035 62.2586 209.884 62.2905 209.732 62.2906H187.025C186.917 62.2906 186.811 62.2586 186.721 62.1986C186.63 62.1387 186.559 62.0534 186.515 61.9531C186.472 61.8528 186.459 61.7419 186.477 61.6341C186.495 61.5262 186.544 61.426 186.617 61.3457L191.402 56.1567C191.506 56.044 191.631 55.9541 191.771 55.8925C191.91 55.831 192.061 55.7991 192.213 55.7989H214.919C215.029 55.7967 215.136 55.8271 215.228 55.8864C215.321 55.9457 215.394 56.0313 215.438 56.1323C215.482 56.2333 215.496 56.3452 215.477 56.4541C215.458 56.5629 215.408 56.6637 215.333 56.7439L210.543 61.9329C210.439 62.0456 210.314 62.1355 210.174 62.1971ZM210.543 66.0191C210.439 65.9069 210.313 65.8173 210.174 65.7558C210.034 65.6943 209.884 65.6622 209.732 65.6614H187.025C186.917 65.6614 186.811 65.6934 186.72 65.7534C186.63 65.8133 186.559 65.8986 186.515 65.9989C186.472 66.0992 186.458 66.2101 186.477 66.3179C186.495 66.4258 186.544 66.5261 186.617 66.6063L191.402 71.798C191.506 71.9102 191.631 71.9998 191.771 72.0613C191.91 72.1228 192.061 72.155 192.213 72.1558H214.919C215.027 72.1552 215.133 72.1228 215.223 72.0627C215.313 72.0025 215.384 71.9172 215.427 71.817C215.47 71.7168 215.483 71.6062 215.465 71.4985C215.447 71.3909 215.398 71.2909 215.325 71.2109L210.543 66.0191ZM215.333 76.4714L210.543 81.6604C210.439 81.7731 210.314 81.8631 210.174 81.9246C210.035 81.9862 209.884 82.018 209.732 82.0182H187.025C186.917 82.0181 186.811 81.9862 186.721 81.9262C186.63 81.8663 186.559 81.7809 186.515 81.6806C186.472 81.5803 186.459 81.4695 186.477 81.3616C186.495 81.2537 186.544 81.1535 186.617 81.0732L191.402 75.8843C191.506 75.7715 191.631 75.6816 191.771 75.6201C191.91 75.5585 192.061 75.5266 192.213 75.5265H214.919C215.029 75.5242 215.136 75.5546 215.228 75.614C215.321 75.6733 215.394 75.7588 215.438 75.8598C215.482 75.9608 215.496 76.0728 215.477 76.1816C215.458 76.2905 215.408 76.3913 215.333 76.4714Z" fill="#EDF3FF"/>
</g>
<g filter="url(#filter2_dd_1211_4758)">
<rect x="10.2656" y="34.9658" width="67.1587" height="67.1587" rx="13.7997" fill="#2350E7"/>
<path fill-rule="evenodd" clip-rule="evenodd" d="M52.7241 59.075L27.9375 54.4609L40.9818 87.6634L59.157 65.2636L52.7241 59.075ZM52.323 61.1074L56.1144 64.7528L45.7441 66.6524L52.323 61.1074ZM32.5645 57.1025L43.495 66.2725L50.4292 60.4276L32.5645 57.1025ZM42.7157 67.8946L40.934 82.7996L31.3242 58.3369L42.7157 67.8946ZM55.8493 66.582L44.3663 68.6857L42.6777 82.8151L55.8493 66.582Z" fill="#EDF3FF"/>
</g>
<path d="M247.5 48.7997C247.5 41.1784 253.678 35 261.3 35H300.859C308.48 35 314.659 41.1784 314.659 48.7997V88.359C314.659 95.9804 308.48 102.159 300.859 102.159H261.3C253.678 102.159 247.5 95.9804 247.5 88.359V48.7997Z" fill="#131420"/>
<rect x="89.1328" y="35.1748" width="67.1587" height="67.1587" rx="13.7997" fill="#131420"/>
<path d="M125.5 57H119.5C113.843 57 111.015 57 109.257 58.7574C107.992 60.0227 107.638 61.8432 107.539 64.875H137.461C137.362 61.8432 137.008 60.0227 135.743 58.7574C133.985 57 131.157 57 125.5 57Z" fill="#191B32"/>
<path d="M119.5 81H125.5C131.157 81 133.985 81 135.743 79.2426C137.5 77.4853 137.5 74.6569 137.5 69C137.5 68.3371 137.5 67.713 137.497 67.125H107.503C107.5 67.713 107.5 68.3371 107.5 69C107.5 74.6569 107.5 77.4853 109.257 79.2426C111.015 81 113.843 81 119.5 81Z" fill="#191B32"/>
<path fill-rule="evenodd" clip-rule="evenodd" d="M112.375 75C112.375 74.3787 112.879 73.875 113.5 73.875H119.5C120.121 73.875 120.625 74.3787 120.625 75C120.625 75.6213 120.121 76.125 119.5 76.125H113.5C112.879 76.125 112.375 75.6213 112.375 75Z" fill="#131420"/>
<path fill-rule="evenodd" clip-rule="evenodd" d="M122.125 75C122.125 74.3787 122.629 73.875 123.25 73.875H125.5C126.121 73.875 126.625 74.3787 126.625 75C126.625 75.6213 126.121 76.125 125.5 76.125H123.25C122.629 76.125 122.125 75.6213 122.125 75Z" fill="#131420"/>
<g opacity="0.4">
<path d="M279.375 61.7712C277.971 62.1551 277.125 63.2323 277.125 64.25C277.125 65.2677 277.971 66.3449 279.375 66.7288V61.7712Z" fill="#1C274C"/>
<path d="M281.625 69.2712V74.2288C283.029 73.8449 283.875 72.7677 283.875 71.75C283.875 70.7323 283.029 69.6551 281.625 69.2712Z" fill="#1C274C"/>
<path fill-rule="evenodd" clip-rule="evenodd" d="M295.5 68C295.5 76.2843 288.784 83 280.5 83C272.216 83 265.5 76.2843 265.5 68C265.5 59.7157 272.216 53 280.5 53C288.784 53 295.5 59.7157 295.5 68ZM280.5 57.875C281.121 57.875 281.625 58.3787 281.625 59V59.4751C284.071 59.913 286.125 61.7504 286.125 64.25C286.125 64.8713 285.621 65.375 285 65.375C284.379 65.375 283.875 64.8713 283.875 64.25C283.875 63.2323 283.029 62.1551 281.625 61.7712V66.9751C284.071 67.413 286.125 69.2504 286.125 71.75C286.125 74.2496 284.071 76.087 281.625 76.5249V77C281.625 77.6213 281.121 78.125 280.5 78.125C279.879 78.125 279.375 77.6213 279.375 77V76.5249C276.929 76.087 274.875 74.2496 274.875 71.75C274.875 71.1287 275.379 70.625 276 70.625C276.621 70.625 277.125 71.1287 277.125 71.75C277.125 72.7677 277.971 73.8449 279.375 74.2288V69.0249C276.929 68.587 274.875 66.7496 274.875 64.25C274.875 61.7504 276.929 59.913 279.375 59.4751V59C279.375 58.3787 279.879 57.875 280.5 57.875Z" fill="#1C274C"/>
</g>
<rect x="-11.5" y="116" width="67.1587" height="67.1587" rx="13.7997" fill="#131420"/>
<g opacity="0.4">
<path d="M21.375 143.771C19.9711 144.155 19.125 145.232 19.125 146.25C19.125 147.268 19.9711 148.345 21.375 148.729V143.771Z" fill="#191B32"/>
<path d="M23.625 151.271V156.229C25.0289 155.845 25.875 154.768 25.875 153.75C25.875 152.732 25.0289 151.655 23.625 151.271Z" fill="#191B32"/>
<path fill-rule="evenodd" clip-rule="evenodd" d="M37.5 150C37.5 158.284 30.7843 165 22.5 165C14.2157 165 7.5 158.284 7.5 150C7.5 141.716 14.2157 135 22.5 135C30.7843 135 37.5 141.716 37.5 150ZM22.5 139.875C23.1213 139.875 23.625 140.379 23.625 141V141.475C26.0706 141.913 28.125 143.75 28.125 146.25C28.125 146.871 27.6213 147.375 27 147.375C26.3787 147.375 25.875 146.871 25.875 146.25C25.875 145.232 25.0289 144.155 23.625 143.771V148.975C26.0706 149.413 28.125 151.25 28.125 153.75C28.125 156.25 26.0706 158.087 23.625 158.525V159C23.625 159.621 23.1213 160.125 22.5 160.125C21.8787 160.125 21.375 159.621 21.375 159V158.525C18.9294 158.087 16.875 156.25 16.875 153.75C16.875 153.129 17.3787 152.625 18 152.625C18.6213 152.625 19.125 153.129 19.125 153.75C19.125 154.768 19.9711 155.845 21.375 156.229V151.025C18.9294 150.587 16.875 148.75 16.875 146.25C16.875 143.75 18.9294 141.913 21.375 141.475V141C21.375 140.379 21.8787 139.875 22.5 139.875Z" fill="#191B32"/>
</g>
<rect x="148.695" y="116.497" width="67.1587" height="67.1587" rx="13.7997" fill="#131420"/>
<path d="M195.912 144.033C196.782 144.893 197.157 145.976 197.332 147.262C197.5 148.5 197.5 150.075 197.5 152.029V152.185C197.5 154.139 197.5 155.714 197.332 156.952C197.157 158.238 196.782 159.321 195.912 160.181C195.042 161.041 193.946 161.411 192.645 161.584C191.391 161.75 189.798 161.75 187.82 161.75H180.433C178.456 161.75 176.862 161.75 175.609 161.584C174.307 161.411 173.212 161.041 172.341 160.181C171.813 159.659 171.468 159.056 171.239 158.374C172.546 158.536 174.163 158.536 176.032 158.536H183.546C185.469 158.536 187.125 158.536 188.451 158.36C189.873 158.171 191.236 157.745 192.341 156.653C193.446 155.561 193.877 154.214 194.068 152.81C194.247 151.499 194.247 149.862 194.247 147.963V147.68C194.247 145.834 194.247 144.235 194.083 142.944C194.773 143.17 195.384 143.511 195.912 144.033Z" fill="#191B32"/>
<path d="M179.789 145.321C178.392 145.321 177.259 146.441 177.259 147.821C177.259 149.202 178.392 150.322 179.789 150.322C181.186 150.322 182.319 149.202 182.319 147.821C182.319 146.441 181.186 145.321 179.789 145.321Z" fill="#191B32"/>
<path fill-rule="evenodd" clip-rule="evenodd" d="M168.77 140.505C167.5 141.761 167.5 143.781 167.5 147.821C167.5 151.862 167.5 153.882 168.77 155.138C170.041 156.393 172.085 156.393 176.175 156.393H183.403C187.493 156.393 189.537 156.393 190.808 155.138C192.078 153.882 192.078 151.862 192.078 147.821C192.078 143.781 192.078 141.761 190.808 140.505C189.537 139.25 187.493 139.25 183.403 139.25H176.175C172.085 139.25 170.041 139.25 168.77 140.505ZM175.09 147.821C175.09 145.257 177.194 143.179 179.789 143.179C182.384 143.179 184.488 145.257 184.488 147.821C184.488 150.386 182.384 152.464 179.789 152.464C177.194 152.464 175.09 150.386 175.09 147.821ZM187.741 151.75C187.142 151.75 186.656 151.27 186.656 150.679V144.964C186.656 144.373 187.142 143.893 187.741 143.893C188.339 143.893 188.825 144.373 188.825 144.964V150.679C188.825 151.27 188.339 151.75 187.741 151.75ZM170.753 150.679C170.753 151.27 171.238 151.75 171.837 151.75C172.436 151.75 172.922 151.27 172.922 150.679L172.922 144.964C172.922 144.373 172.436 143.893 171.837 143.893C171.238 143.893 170.753 144.373 170.753 144.964L170.753 150.679Z" fill="#191B32"/>
<g filter="url(#filter3_dd_1211_4758)">
<rect x="228.219" y="116.552" width="67.1587" height="67.1587" rx="13.7997" fill="#1F53FF"/>
<path d="M272.464 149.131L261.915 155.237L251.367 149.131L261.915 131.988L272.464 149.131Z" fill="white"/>
<path d="M272.47 151.09L261.915 165.651L251.367 151.09L261.915 157.194L272.47 151.09Z" fill="#EDF3FF"/>
</g>
<g filter="url(#filter4_dd_1211_4758)">
<rect x="68.5312" y="116.497" width="67.1587" height="67.1587" rx="13.7997" fill="#1F53FF"/>
<path fill-rule="evenodd" clip-rule="evenodd" d="M105.029 141.525V145.404L105.033 145.408C112.132 145.74 117.469 147.172 117.469 148.881C117.469 150.594 112.132 152.022 105.033 152.353V164.79H98.7072V152.353C91.5994 152.017 86.25 150.59 86.25 148.877C86.25 147.164 91.5953 145.736 98.7072 145.404V141.525H89.957V135.608H113.779V141.525H105.029ZM105.028 151.286V151.29V151.295C111.296 151.009 115.975 149.9 115.975 148.574C115.975 147.247 111.3 146.138 105.028 145.853V150.186C104.846 150.203 103.87 150.287 101.917 150.287C100.291 150.287 99.112 150.215 98.7024 150.186V145.849C92.4221 146.13 87.7305 147.243 87.7305 148.569C87.7305 149.9 92.4179 151.009 98.7024 151.29V151.286C99.1078 151.307 100.254 151.353 101.888 151.353C103.932 151.353 104.85 151.299 105.028 151.286Z" fill="#EDF3FF"/>
</g>
<rect width="277" height="217.643" rx="18.8435" fill="url(#paint1_linear_1211_4758)" fill-opacity="0.8"/>
</g>
<defs>
<filter id="filter0_f_1211_4758" x="-130" y="-245" width="537" height="457" filterUnits="userSpaceOnUse" color-interpolation-filters="sRGB">
<feFlood flood-opacity="0" result="BackgroundImageFix"/>
<feBlend mode="normal" in="SourceGraphic" in2="BackgroundImageFix" result="shape"/>
<feGaussianBlur stdDeviation="92" result="effect1_foregroundBlur_1211_4758"/>
</filter>
<filter id="filter1_dd_1211_4758" x="156.695" y="14.3698" width="89.7665" height="89.7694" filterUnits="userSpaceOnUse" color-interpolation-filters="sRGB">
<feFlood flood-opacity="0" result="BackgroundImageFix"/>
<feColorMatrix in="SourceAlpha" type="matrix" values="0 0 0 0 0 0 0 0 0 0 0 0 0 0 0 0 0 0 127 0" result="hardAlpha"/>
<feOffset dy="-3.32218"/>
<feGaussianBlur stdDeviation="2.04442"/>
<feColorMatrix type="matrix" values="0 0 0 0 0.137255 0 0 0 0 0.313726 0 0 0 0 0.905882 0 0 0 0.0975551 0"/>
<feBlend mode="normal" in2="BackgroundImageFix" result="effect1_dropShadow_1211_4758"/>
<feColorMatrix in="SourceAlpha" type="matrix" values="0 0 0 0 0 0 0 0 0 0 0 0 0 0 0 0 0 0 127 0" result="hardAlpha"/>
<feOffset dy="-9.1854"/>
<feGaussianBlur stdDeviation="5.65256"/>
<feColorMatrix type="matrix" values="0 0 0 0 0.137255 0 0 0 0 0.313726 0 0 0 0 0.905882 0 0 0 0.14 0"/>
<feBlend mode="normal" in2="effect1_dropShadow_1211_4758" result="effect2_dropShadow_1211_4758"/>
<feBlend mode="normal" in="SourceGraphic" in2="effect2_dropShadow_1211_4758" result="shape"/>
</filter>
<filter id="filter2_dd_1211_4758" x="-1.03949" y="14.4753" width="89.7665" height="89.7694" filterUnits="userSpaceOnUse" color-interpolation-filters="sRGB">
<feFlood flood-opacity="0" result="BackgroundImageFix"/>
<feColorMatrix in="SourceAlpha" type="matrix" values="0 0 0 0 0 0 0 0 0 0 0 0 0 0 0 0 0 0 127 0" result="hardAlpha"/>
<feOffset dy="-3.32218"/>
<feGaussianBlur stdDeviation="2.04442"/>
<feColorMatrix type="matrix" values="0 0 0 0 0.137255 0 0 0 0 0.313726 0 0 0 0 0.905882 0 0 0 0.0975551 0"/>
<feBlend mode="normal" in2="BackgroundImageFix" result="effect1_dropShadow_1211_4758"/>
<feColorMatrix in="SourceAlpha" type="matrix" values="0 0 0 0 0 0 0 0 0 0 0 0 0 0 0 0 0 0 127 0" result="hardAlpha"/>
<feOffset dy="-9.1854"/>
<feGaussianBlur stdDeviation="5.65256"/>
<feColorMatrix type="matrix" values="0 0 0 0 0.137255 0 0 0 0 0.313726 0 0 0 0 0.905882 0 0 0 0.14 0"/>
<feBlend mode="normal" in2="effect1_dropShadow_1211_4758" result="effect2_dropShadow_1211_4758"/>
<feBlend mode="normal" in="SourceGraphic" in2="effect2_dropShadow_1211_4758" result="shape"/>
</filter>
<filter id="filter3_dd_1211_4758" x="216.914" y="96.0612" width="89.7665" height="89.7694" filterUnits="userSpaceOnUse" color-interpolation-filters="sRGB">
<feFlood flood-opacity="0" result="BackgroundImageFix"/>
<feColorMatrix in="SourceAlpha" type="matrix" values="0 0 0 0 0 0 0 0 0 0 0 0 0 0 0 0 0 0 127 0" result="hardAlpha"/>
<feOffset dy="-3.32218"/>
<feGaussianBlur stdDeviation="2.04442"/>
<feColorMatrix type="matrix" values="0 0 0 0 0.137255 0 0 0 0 0.313726 0 0 0 0 0.905882 0 0 0 0.0975551 0"/>
<feBlend mode="normal" in2="BackgroundImageFix" result="effect1_dropShadow_1211_4758"/>
<feColorMatrix in="SourceAlpha" type="matrix" values="0 0 0 0 0 0 0 0 0 0 0 0 0 0 0 0 0 0 127 0" result="hardAlpha"/>
<feOffset dy="-9.1854"/>
<feGaussianBlur stdDeviation="5.65256"/>
<feColorMatrix type="matrix" values="0 0 0 0 0.137255 0 0 0 0 0.313726 0 0 0 0 0.905882 0 0 0 0.14 0"/>
<feBlend mode="normal" in2="effect1_dropShadow_1211_4758" result="effect2_dropShadow_1211_4758"/>
<feBlend mode="normal" in="SourceGraphic" in2="effect2_dropShadow_1211_4758" result="shape"/>
</filter>
<filter id="filter4_dd_1211_4758" x="57.2261" y="96.0066" width="89.7665" height="89.7694" filterUnits="userSpaceOnUse" color-interpolation-filters="sRGB">
<feFlood flood-opacity="0" result="BackgroundImageFix"/>
<feColorMatrix in="SourceAlpha" type="matrix" values="0 0 0 0 0 0 0 0 0 0 0 0 0 0 0 0 0 0 127 0" result="hardAlpha"/>
<feOffset dy="-3.32218"/>
<feGaussianBlur stdDeviation="2.04442"/>
<feColorMatrix type="matrix" values="0 0 0 0 0.137255 0 0 0 0 0.313726 0 0 0 0 0.905882 0 0 0 0.0975551 0"/>
<feBlend mode="normal" in2="BackgroundImageFix" result="effect1_dropShadow_1211_4758"/>
<feColorMatrix in="SourceAlpha" type="matrix" values="0 0 0 0 0 0 0 0 0 0 0 0 0 0 0 0 0 0 127 0" result="hardAlpha"/>
<feOffset dy="-9.1854"/>
<feGaussianBlur stdDeviation="5.65256"/>
<feColorMatrix type="matrix" values="0 0 0 0 0.137255 0 0 0 0 0.313726 0 0 0 0 0.905882 0 0 0 0.14 0"/>
<feBlend mode="normal" in2="effect1_dropShadow_1211_4758" result="effect2_dropShadow_1211_4758"/>
<feBlend mode="normal" in="SourceGraphic" in2="effect2_dropShadow_1211_4758" result="shape"/>
</filter>
<radialGradient id="paint0_radial_1211_4758" cx="0" cy="0" r="1" gradientUnits="userSpaceOnUse" gradientTransform="translate(138.402 50.5) rotate(90) scale(248.136 263.752)">
<stop/>
<stop offset="0.630476" stop-color="#666666" stop-opacity="0"/>
</radialGradient>
<linearGradient id="paint1_linear_1211_4758" x1="277" y1="108.821" x2="-68.5" y2="107" gradientUnits="userSpaceOnUse">
<stop stop-color="#090A13"/>
<stop offset="0.242591" stop-color="#090A13" stop-opacity="0.5"/>
<stop offset="0.46056" stop-color="#090A13" stop-opacity="0"/>
<stop offset="0.749789" stop-color="#090A13" stop-opacity="0.5"/>
<stop offset="1" stop-color="#090A13"/>
</linearGradient>
<clipPath id="clip0_1211_4758">
<rect width="277" height="217" rx="18.8435" fill="white"/>
</clipPath>
</defs>
</svg>
